<svg xmlns="http://www.w3.org/2000/svg" width="2861.404" height="131.951" viewBox="0 0 2861.404 131.951"><path d="M289.357-101.762h14.3v35.676a31.378,31.378,0,0,1,6.313-5.844h0a23.647,23.647,0,0,1,6.976-3.053,33.192,33.192,0,0,1,8.406-1.007,30.046,30.046,0,0,1,13.823,2.9,19.742,19.742,0,0,1,8.67,8.792,27.794,27.794,0,0,1,2.4,7.537,55.3,55.3,0,0,1,.785,9.8V1H336.388V-46.143c0-5.183-.649-9-1.929-11.347h0a9.565,9.565,0,0,0-4.373-4.089,17.02,17.02,0,0,0-7.327-1.406,19.492,19.492,0,0,0-6.943,1.251,21.676,21.676,0,0,0-6.288,3.776,14.96,14.96,0,0,0-4.357,7.14,40.9,40.9,0,0,0-1.51,11.989V1h-14.3Zm12.3,2h-10.3V-1h10.3V-38.828a42.858,42.858,0,0,1,1.6-12.586,16.908,16.908,0,0,1,4.974-8.07,22.019,22.019,0,0,1,14.523-5.5c6.514,0,11.04,2.2,13.452,6.529l0,.007c1.462,2.681,2.173,6.706,2.173,12.305V-1h10.646V-46.963c0-7.009-1-12.538-2.969-16.434a18.557,18.557,0,0,0-3.3-4.624,17.693,17.693,0,0,0-4.506-3.3,28.093,28.093,0,0,0-12.906-2.674,31.216,31.216,0,0,0-7.9.941,21.646,21.646,0,0,0-6.388,2.792l-.005,0a34.754,34.754,0,0,0-7.62,7.573l-1.785,2.259Zm-1643.154-1.658h47.484a61.6,61.6,0,0,1,10.65.853,36.971,36.971,0,0,1,8.695,2.585A24.072,24.072,0,0,1-1263.6-88.44c2.441,4.092,3.679,9.169,3.679,15.09a34.7,34.7,0,0,1-.962,8.448,22.823,22.823,0,0,1-2.925,6.862,27.446,27.446,0,0,1-9.035,8.583,20.318,20.318,0,0,1,7.419,5.784,15.416,15.416,0,0,1,2.488,5.463,36.675,36.675,0,0,1,1.032,7.751l.479,13.47a40.754,40.754,0,0,0,.923,8.321l0,.01c.736,2.861,2.016,4.706,3.805,5.484l.6.261V1h-18.283l-.281-.534a13.577,13.577,0,0,1-1.189-3.619,64.19,64.19,0,0,1-.7-8.079l-.82-16.745a17.8,17.8,0,0,0-1.944-7.784,10.856,10.856,0,0,0-4.8-4.557c-2.451-1.159-6.422-1.747-11.8-1.747h-29.967V1h-15.6Zm79.055,93.261a41.925,41.925,0,0,1-.988-8.758l-.479-13.467c-.219-5.592-1.265-9.656-3.111-12.075a19.666,19.666,0,0,0-8.435-5.969l-2-.815,1.918-1a26.057,26.057,0,0,0,10.048-8.886c2.365-3.646,3.565-8.431,3.565-14.221a27.15,27.15,0,0,0-3.4-14.065,20.39,20.39,0,0,0-4.216-5.005,24.8,24.8,0,0,0-5.952-3.74c-4.811-2.162-11.044-3.26-18.522-3.26h-45.484V-1h11.6V-44.066h31.967c5.763,0,9.905.635,12.664,1.942l.012.006c4.888,2.4,7.537,7.12,7.874,14.043l.82,16.748a63.906,63.906,0,0,0,.665,7.782A13.155,13.155,0,0,0-1273.142-1h15.047v-.635c-2.064-1.145-3.524-3.336-4.344-6.524Zm174.832-93.261h14.305V1h-14.305Zm12.305,2h-10.305V-1h10.305Zm360.6-2h13.826V-44.5l30.172-29.715h18.585l-1.753,1.715-27.443,26.841L-651.166,1h-18.116l-.293-.474-22.2-35.888-9.106,8.322V1h-13.826Zm11.826,2h-9.826V-1h9.826V-27.921l.325-.3,11.212-10.248L-668.168-1h13.328l-29.046-44.944,26.858-26.269h-12.86L-702.88-39.721Zm447.549-2h14.51v15.945h-14.51Zm12.51,2h-10.51v11.945h10.51Zm462.178-2h14.51v15.945h-14.51Zm12.51,2h-10.51v11.945h10.51Zm168.351-2H417.4l.23.68,27.895,82.692,27.791-83.373h17.394L453.341,1H437.518l-.24-.658Zm15.749,2H403.074L438.918-1h13.024l35.911-98.42H474.759L445.538-11.757Zm81.066-2h14.51v15.945h-14.51Zm12.51,2h-10.51v11.945h10.51Zm260.176-2h14.3V1h-14.3Zm12.3,2h-10.3V-1h10.3Zm59.336-2H857.1v41.494h50.226V-101.42h15.74V1h-15.74V-45.963H857.1V1h-15.74Zm13.74,2h-11.74V-1H855.1V-47.963h54.226V-1h11.74V-99.42h-11.74v41.494H855.1Zm232.969-2h13.826V-44.5l30.172-29.715h18.585l-29.2,28.556L1151.607,1h-18.116L1133.2.526,1111-35.362l-9.107,8.322V1h-13.826Zm11.826,2h-9.826V-1h9.826V-27.921l11.538-10.545L1134.605-1h13.328l-29.046-44.944.584-.571,26.274-25.7h-12.86l-32.992,32.492Zm245.308-2h16.774l.239.659L1399.137,1H1382.09L1371.9-29.078h-38.3L1322.738,1h-16.092l.509-1.352Zm15.372,2h-13.988L1309.536-1h11.8L1332.2-31.078h41.136L1383.525-1h12.758Zm51.586-2h15.74V1h-15.74Zm13.74,2h-11.74V-1h11.74ZM-937.626-94.652h14.441v20.439H-911.5v12.049h-11.689v46.783c0,2.16.669,3.545,2.045,4.232l.017.009a9.857,9.857,0,0,0,4.321.638c.579,0,1.211-.011,1.88-.034s1.445-.078,2.326-.167l1.1-.11V.751l-.721.21a28.553,28.553,0,0,1-4.57.921,43.014,43.014,0,0,1-5.074.281A21.686,21.686,0,0,1-929.442,1a10.234,10.234,0,0,1-4.927-3.67c-2.161-3.1-3.256-7.141-3.256-12.022V-62.164h-9.912V-74.213h9.912Zm12.441,2h-10.441v20.439h-9.912v8.049h9.912V-14.7c0,4.464.974,8.123,2.9,10.878a8.28,8.28,0,0,0,3.993,2.944A19.746,19.746,0,0,0-921.86.162,41.077,41.077,0,0,0-917.023-.1,26.9,26.9,0,0,0-913.5-.763V-8.614c-.491.038-.946.064-1.359.077-.692.023-1.347.035-1.947.035a11.813,11.813,0,0,1-5.242-.862,5.261,5.261,0,0,1-2.384-2.369,8.042,8.042,0,0,1-.757-3.648V-64.164H-913.5v-8.049h-11.689Zm26.455-2h14.441v20.439H-872.6v12.049h-11.689v46.783c0,2.16.669,3.545,2.045,4.232l.017.009a9.857,9.857,0,0,0,4.321.638c.579,0,1.211-.011,1.88-.034s1.445-.078,2.326-.167l1.1-.11V.751l-.721.21a28.565,28.565,0,0,1-4.569.921,43.025,43.025,0,0,1-5.075.281A21.689,21.689,0,0,1-890.546,1a10.233,10.233,0,0,1-4.927-3.67c-2.161-3.1-3.256-7.141-3.256-12.022V-62.164h-9.912V-74.213h9.912Zm12.441,2h-10.441v20.439h-9.912v8.049h9.912V-14.7c0,4.464.974,8.123,2.9,10.878A8.279,8.279,0,0,0-889.84-.876,19.743,19.743,0,0,0-882.964.162,41.093,41.093,0,0,0-878.126-.1,26.9,26.9,0,0,0-874.6-.763V-8.614c-.491.038-.946.064-1.359.077-.692.023-1.347.035-1.947.035a11.813,11.813,0,0,1-5.242-.862,5.261,5.261,0,0,1-2.384-2.369,8.042,8.042,0,0,1-.757-3.648V-64.164H-874.6v-8.049h-11.689Zm1139.209-2h14.441v20.439h11.69v12.049h-11.69v46.783c0,2.16.669,3.544,2.045,4.232l.017.009a9.848,9.848,0,0,0,4.321.638c.579,0,1.211-.011,1.88-.034s1.445-.078,2.327-.167l1.1-.11V.751l-.721.21a28.554,28.554,0,0,1-4.57.921,43.025,43.025,0,0,1-5.075.281A21.686,21.686,0,0,1,261.1,1a10.231,10.231,0,0,1-4.928-3.67c-2.161-3.1-3.256-7.141-3.256-12.022V-62.164h-9.912V-74.213h9.912Zm12.441,2H254.921v20.439h-9.912v8.049h9.912V-14.7c0,4.464.974,8.123,2.9,10.878A8.281,8.281,0,0,0,261.81-.876,19.744,19.744,0,0,0,268.687.162,41.092,41.092,0,0,0,273.524-.1a26.9,26.9,0,0,0,3.528-.658V-8.614c-.492.038-.946.064-1.359.077-.692.023-1.347.035-1.948.035a11.791,11.791,0,0,1-5.249-.866h0a5.26,5.26,0,0,1-2.376-2.365,8.042,8.042,0,0,1-.757-3.648V-64.164h11.69v-8.049h-11.69Zm311.855-2h14.441v20.439h11.69v12.049h-11.69v46.783c0,2.16.669,3.544,2.045,4.232l.017.009a9.848,9.848,0,0,0,4.321.638c.579,0,1.211-.011,1.881-.034s1.445-.078,2.326-.167l1.1-.11V.751l-.721.21a28.554,28.554,0,0,1-4.57.921,43.025,43.025,0,0,1-5.075.281A21.686,21.686,0,0,1,585.4,1a10.234,10.234,0,0,1-4.927-3.67c-2.161-3.1-3.256-7.141-3.256-12.022V-62.164h-9.912V-74.213h9.912Zm12.441,2H579.218v20.439h-9.912v8.049h9.912V-14.7c0,4.464.975,8.124,2.9,10.878a8.28,8.28,0,0,0,3.993,2.944A19.744,19.744,0,0,0,592.983.162,41.093,41.093,0,0,0,597.821-.1a26.9,26.9,0,0,0,3.528-.658V-8.614c-.492.038-.946.064-1.359.077-.692.023-1.347.035-1.948.035a11.791,11.791,0,0,1-5.249-.866h0a5.26,5.26,0,0,1-2.376-2.365,8.042,8.042,0,0,1-.758-3.648V-64.164h11.69v-8.049h-11.69ZM-1327.89-89.73h34.223c4.781,0,8.678.725,11.584,2.153l.006,0c5.538,2.769,8.346,7.991,8.346,15.523a23.691,23.691,0,0,1-1.465,8.816,12.6,12.6,0,0,1-4.539,5.816,21.358,21.358,0,0,1-6.892,3.016,36.206,36.206,0,0,1-8.816.987h-32.445Zm44.924,3.948c-2.628-1.293-6.229-1.948-10.7-1.948h-32.223v32.316h30.445c6.144,0,11.048-1.229,14.575-3.653a10.631,10.631,0,0,0,3.818-4.916,21.743,21.743,0,0,0,1.32-8.068,18.124,18.124,0,0,0-1.831-8.553,12.1,12.1,0,0,0-5.4-5.178Zm2636-2.729.917,2.669,15.7,45.69h-34.276Zm13.814,46.359-13.872-40.372-14.743,40.372ZM-755.2-76.332a40.289,40.289,0,0,1,11.506,1.546,28.135,28.135,0,0,1,9.239,4.68,22.125,22.125,0,0,1,6.511,8.566,42.389,42.389,0,0,1,3.2,12.831l.119,1.106h-13.927l-.136-.84a21.2,21.2,0,0,0-4.758-10.748,10.949,10.949,0,0,0-4.658-3.073,21.221,21.221,0,0,0-7.1-1.061,16.546,16.546,0,0,0-9.519,2.7,18.8,18.8,0,0,0-6.383,8.191c-2.121,4.816-3.2,10.867-3.2,17.985a40.8,40.8,0,0,0,1.132,9.891,28.636,28.636,0,0,0,3.367,8.109,14.166,14.166,0,0,0,5.588,5.276,17.791,17.791,0,0,0,8.19,1.769,18.043,18.043,0,0,0,6.5-1.1,13.426,13.426,0,0,0,4.909-3.27c2.84-2.97,4.836-7.119,5.931-12.332l.167-.794h13.925l-.16,1.139a43.928,43.928,0,0,1-3.678,12.9,26.256,26.256,0,0,1-6.932,9.029,29.239,29.239,0,0,1-9.677,5.229,39.124,39.124,0,0,1-11.944,1.731A31.76,31.76,0,0,1-770.3.4a28.826,28.826,0,0,1-10.356-8.147,37.524,37.524,0,0,1-6.584-12.122,47.52,47.52,0,0,1-2.185-14.725,58.8,58.8,0,0,1,2.386-17.439,36.43,36.43,0,0,1,7.225-13.228,32.064,32.064,0,0,1,10.99-8.3A32.978,32.978,0,0,1-755.2-76.332Zm28.34,26.729a39.169,39.169,0,0,0-2.907-11.116,20.154,20.154,0,0,0-5.913-7.806,26.136,26.136,0,0,0-8.586-4.344A38.3,38.3,0,0,0-755.2-74.332a31,31,0,0,0-12.8,2.6,30.081,30.081,0,0,0-10.3,7.8,34.438,34.438,0,0,0-6.823,12.509,56.824,56.824,0,0,0-2.3,16.844,45.531,45.531,0,0,0,2.087,14.105A35.533,35.533,0,0,0-779.1-9.005a26.846,26.846,0,0,0,9.639,7.592,29.781,29.781,0,0,0,12.486,2.533A37.138,37.138,0,0,0-745.645-.516a27.249,27.249,0,0,0,9.019-4.871,24.277,24.277,0,0,0,6.4-8.351,40.809,40.809,0,0,0,3.327-11.17h-10A26.339,26.339,0,0,1-743.164-12.4c-3.167,3.312-7.492,4.991-12.857,4.991-6.992,0-12.2-2.689-15.48-7.994a30.637,30.637,0,0,1-3.605-8.674A42.789,42.789,0,0,1-776.3-34.453c0-7.4,1.133-13.72,3.366-18.791,3.531-8.017,9.5-12.081,17.732-12.081a23.19,23.19,0,0,1,7.771,1.178,12.914,12.914,0,0,1,5.493,3.643,22.835,22.835,0,0,1,5.075,10.9ZM-39.272-76.332a40.289,40.289,0,0,1,11.506,1.546,28.134,28.134,0,0,1,9.239,4.68,22.125,22.125,0,0,1,6.511,8.566,42.39,42.39,0,0,1,3.2,12.831L-8.7-47.6H-22.624l-.136-.84a21.2,21.2,0,0,0-4.757-10.748,10.949,10.949,0,0,0-4.658-3.073,21.221,21.221,0,0,0-7.1-1.061,16.546,16.546,0,0,0-9.519,2.7,18.8,18.8,0,0,0-6.382,8.191c-2.121,4.816-3.2,10.868-3.2,17.985a40.8,40.8,0,0,0,1.132,9.891,28.636,28.636,0,0,0,3.367,8.109,14.166,14.166,0,0,0,5.588,5.276,17.791,17.791,0,0,0,8.19,1.769,18.041,18.041,0,0,0,6.5-1.1,13.426,13.426,0,0,0,4.909-3.27c2.84-2.97,4.836-7.119,5.931-12.332l.167-.794H-8.659l-.16,1.139a43.928,43.928,0,0,1-3.678,12.9,26.259,26.259,0,0,1-6.931,9.029,29.245,29.245,0,0,1-9.677,5.229A39.122,39.122,0,0,1-41.05,3.119,31.759,31.759,0,0,1-54.369.4,28.823,28.823,0,0,1-64.726-7.743,37.517,37.517,0,0,1-71.31-19.865,47.509,47.509,0,0,1-73.5-34.59a58.788,58.788,0,0,1,2.387-17.439,36.425,36.425,0,0,1,7.225-13.228,32.065,32.065,0,0,1,10.99-8.3A32.979,32.979,0,0,1-39.272-76.332ZM-10.933-49.6A39.167,39.167,0,0,0-13.84-60.72a20.153,20.153,0,0,0-5.913-7.806,26.137,26.137,0,0,0-8.586-4.344,38.3,38.3,0,0,0-10.933-1.462,31,31,0,0,0-12.8,2.6,30.081,30.081,0,0,0-10.3,7.8A34.437,34.437,0,0,0-69.2-51.433,56.807,56.807,0,0,0-71.5-34.59a45.521,45.521,0,0,0,2.087,14.105A35.537,35.537,0,0,0-63.175-9.005a26.843,26.843,0,0,0,9.639,7.592A29.781,29.781,0,0,0-41.05,1.119,37.137,37.137,0,0,0-29.717-.516,27.257,27.257,0,0,0-20.7-5.387a24.28,24.28,0,0,0,6.4-8.351,40.8,40.8,0,0,0,3.327-11.17h-10A26.337,26.337,0,0,1-27.236-12.4C-30.4-9.088-34.729-7.408-40.093-7.408c-6.993,0-12.2-2.689-15.48-7.994a30.637,30.637,0,0,1-3.606-8.674A42.791,42.791,0,0,1-60.37-34.453c0-7.4,1.132-13.719,3.366-18.791,3.531-8.017,9.5-12.081,17.732-12.081A23.19,23.19,0,0,1-31.5-64.148a12.914,12.914,0,0,1,5.493,3.643,22.835,22.835,0,0,1,5.075,10.9ZM1047.573-76.332a40.289,40.289,0,0,1,11.506,1.546,28.134,28.134,0,0,1,9.239,4.68,22.125,22.125,0,0,1,6.511,8.566,42.389,42.389,0,0,1,3.2,12.831l.119,1.106h-13.927l-.136-.84a21.206,21.206,0,0,0-4.757-10.748,10.949,10.949,0,0,0-4.658-3.073,21.221,21.221,0,0,0-7.1-1.061,16.548,16.548,0,0,0-9.519,2.7,18.8,18.8,0,0,0-6.382,8.191c-2.121,4.816-3.2,10.868-3.2,17.985a40.8,40.8,0,0,0,1.132,9.891,28.635,28.635,0,0,0,3.367,8.109,14.165,14.165,0,0,0,5.588,5.276,17.791,17.791,0,0,0,8.19,1.769,18.042,18.042,0,0,0,6.5-1.1,13.426,13.426,0,0,0,4.909-3.27c2.841-2.971,4.836-7.12,5.931-12.332l.167-.794h13.925l-.16,1.139a43.933,43.933,0,0,1-3.678,12.9,26.258,26.258,0,0,1-6.932,9.029,29.245,29.245,0,0,1-9.677,5.229A39.122,39.122,0,0,1,1045.8,3.119,31.759,31.759,0,0,1,1032.477.4a28.822,28.822,0,0,1-10.356-8.147,37.519,37.519,0,0,1-6.584-12.122,47.52,47.52,0,0,1-2.185-14.725,58.788,58.788,0,0,1,2.387-17.439,36.425,36.425,0,0,1,7.225-13.228,32.065,32.065,0,0,1,10.99-8.3A32.978,32.978,0,0,1,1047.573-76.332ZM1075.913-49.6a39.167,39.167,0,0,0-2.907-11.116,20.153,20.153,0,0,0-5.913-7.806,26.137,26.137,0,0,0-8.586-4.344,38.3,38.3,0,0,0-10.933-1.462,31,31,0,0,0-12.8,2.6,30.079,30.079,0,0,0-10.3,7.8,34.438,34.438,0,0,0-6.823,12.509,56.807,56.807,0,0,0-2.3,16.843,45.52,45.52,0,0,0,2.087,14.105,35.527,35.527,0,0,0,6.233,11.479,26.843,26.843,0,0,0,9.639,7.592A29.78,29.78,0,0,0,1045.8,1.119a37.137,37.137,0,0,0,11.333-1.636,27.257,27.257,0,0,0,9.02-4.871,24.279,24.279,0,0,0,6.4-8.351,40.8,40.8,0,0,0,3.328-11.17h-10a26.34,26.34,0,0,1-6.267,12.509c-3.167,3.312-7.492,4.991-12.856,4.991-6.992,0-12.2-2.689-15.48-7.994a30.639,30.639,0,0,1-3.606-8.674,42.794,42.794,0,0,1-1.192-10.378c0-7.4,1.133-13.719,3.366-18.791,3.531-8.017,9.5-12.081,17.732-12.081a23.19,23.19,0,0,1,7.771,1.178,12.914,12.914,0,0,1,5.493,3.643,22.841,22.841,0,0,1,5.075,10.9ZM-1136.1-75.99a52.6,52.6,0,0,1,11.935,1.257,32.621,32.621,0,0,1,9.572,3.811c5.626,3.462,8.478,8.9,8.478,16.166v42.178a4.469,4.469,0,0,0,.614,2.516c.315.466,1.2.722,2.487.722.511,0,1.1-.033,1.746-.1s1.367-.165,2.113-.3l1.174-.208V1.1l-.725.207a34.867,34.867,0,0,1-4.514,1.055,33.018,33.018,0,0,1-4.237.215c-4.583,0-7.972-1.674-10.072-4.975l0,0a15.746,15.746,0,0,1-1.884-5.017,34.48,34.48,0,0,1-9.732,7.151,34.554,34.554,0,0,1-15.975,3.734,27.508,27.508,0,0,1-9.6-1.609A22.412,22.412,0,0,1-1162.459-3a21.64,21.64,0,0,1-5.076-7.3,23.006,23.006,0,0,1-1.692-8.9,25.153,25.153,0,0,1,1.662-9.414,18.752,18.752,0,0,1,5.034-7.127,27.223,27.223,0,0,1,7.627-4.7,37.269,37.269,0,0,1,9.589-2.444l19.62-2.461c2.485-.321,4.088-1.3,4.9-2.994l.008-.016a9.946,9.946,0,0,0,.715-4.27c0-3.861-1.312-6.57-4.013-8.281-2.809-1.78-6.941-2.682-12.282-2.682a22.363,22.363,0,0,0-7.882,1.234,11.24,11.24,0,0,0-5,3.575l0,0c-1.382,1.76-2.3,4.467-2.733,8.047l-.106.88h-13.4l.026-1.025a29.893,29.893,0,0,1,2.46-11.873,17.966,17.966,0,0,1,6.792-7.782,34.683,34.683,0,0,1,9.388-4.091A41.135,41.135,0,0,1-1136.1-75.99Zm33.086,68.65c-2.031,0-3.425-.539-4.144-1.6a6.39,6.39,0,0,1-.958-3.637V-54.756A18.342,18.342,0,0,0-1110-63.316a15.175,15.175,0,0,0-5.636-5.9,30.638,30.638,0,0,0-8.984-3.57,50.607,50.607,0,0,0-11.479-1.2,39.14,39.14,0,0,0-10.206,1.29,32.674,32.674,0,0,0-8.847,3.855,16,16,0,0,0-6.042,6.933,27.023,27.023,0,0,0-2.235,10.053h9.571a17.248,17.248,0,0,1,3.028-8.163h0a13.212,13.212,0,0,1,5.866-4.214,24.326,24.326,0,0,1,8.592-1.364,35.488,35.488,0,0,1,7.59.733,18.016,18.016,0,0,1,5.762,2.26c3.28,2.078,4.943,5.432,4.943,9.97a11.673,11.673,0,0,1-.918,5.147h0c-1.108,2.322-3.278,3.707-6.449,4.116l-19.623,2.461a35.282,35.282,0,0,0-9.073,2.307,25.224,25.224,0,0,0-7.07,4.355,16.77,16.77,0,0,0-4.5,6.374,23.176,23.176,0,0,0-1.517,8.667,21.023,21.023,0,0,0,1.538,8.134,19.659,19.659,0,0,0,4.614,6.627,20.424,20.424,0,0,0,7.048,4.425,25.522,25.522,0,0,0,8.906,1.484,32.572,32.572,0,0,0,15.06-3.513,30.468,30.468,0,0,0,10.464-8.263l1.452-1.9.333,2.368a16.547,16.547,0,0,0,1.976,6.375h0c1.734,2.721,4.476,4.044,8.382,4.044a31.192,31.192,0,0,0,3.966-.2,29.448,29.448,0,0,0,3.51-.793V-7.579c-.375.053-.738.1-1.088.131C-1101.781-7.376-1102.435-7.34-1103.013-7.34Zm114.775-68.65A52.594,52.594,0,0,1-976.3-74.733a32.623,32.623,0,0,1,9.573,3.811c5.626,3.462,8.477,8.9,8.477,16.166v42.178a4.47,4.47,0,0,0,.615,2.516c.315.465,1.2.722,2.487.722.511,0,1.1-.033,1.746-.1s1.366-.165,2.113-.3l1.174-.207V1.1l-.725.207a34.8,34.8,0,0,1-4.514,1.055,33.027,33.027,0,0,1-4.237.215c-4.583,0-7.971-1.674-10.072-4.975l0,0a15.749,15.749,0,0,1-1.883-5.017,34.479,34.479,0,0,1-9.732,7.151,34.556,34.556,0,0,1-15.975,3.734,27.509,27.509,0,0,1-9.6-1.609A22.414,22.414,0,0,1-1014.6-3a21.64,21.64,0,0,1-5.076-7.3,23,23,0,0,1-1.692-8.9,25.154,25.154,0,0,1,1.662-9.414,18.753,18.753,0,0,1,5.034-7.127,27.223,27.223,0,0,1,7.628-4.7,37.27,37.27,0,0,1,9.589-2.444l19.62-2.461c2.485-.321,4.088-1.3,4.9-2.994l.008-.017a9.939,9.939,0,0,0,.715-4.269c0-3.862-1.312-6.57-4.013-8.281-2.809-1.78-6.941-2.682-12.282-2.682a22.36,22.36,0,0,0-7.882,1.234,11.241,11.241,0,0,0-5,3.575l0,0c-1.382,1.759-2.3,4.466-2.733,8.047l-.106.88h-13.4l.026-1.025a29.89,29.89,0,0,1,2.46-11.873,17.967,17.967,0,0,1,6.792-7.782,34.673,34.673,0,0,1,9.388-4.091A41.134,41.134,0,0,1-988.237-75.99Zm33.086,68.65c-2.03,0-3.425-.539-4.144-1.6a6.393,6.393,0,0,1-.958-3.637V-54.756a18.347,18.347,0,0,0-1.886-8.561,15.178,15.178,0,0,0-5.636-5.9,30.64,30.64,0,0,0-8.984-3.57,50.6,50.6,0,0,0-11.478-1.2,39.141,39.141,0,0,0-10.206,1.29,32.668,32.668,0,0,0-8.847,3.855,16,16,0,0,0-6.042,6.933,27.023,27.023,0,0,0-2.235,10.053H-1006a17.245,17.245,0,0,1,3.028-8.163h0a13.21,13.21,0,0,1,5.866-4.214,24.327,24.327,0,0,1,8.593-1.364,35.488,35.488,0,0,1,7.59.733,18.015,18.015,0,0,1,5.763,2.26c3.279,2.077,4.942,5.432,4.942,9.97a11.654,11.654,0,0,1-.921,5.155c-1.109,2.317-3.277,3.7-6.445,4.109L-997.2-40.912a35.281,35.281,0,0,0-9.073,2.307,25.222,25.222,0,0,0-7.07,4.355,16.769,16.769,0,0,0-4.5,6.374,23.178,23.178,0,0,0-1.517,8.667,21.023,21.023,0,0,0,1.538,8.134,19.65,19.65,0,0,0,4.614,6.627,20.427,20.427,0,0,0,7.048,4.425,25.523,25.523,0,0,0,8.906,1.484A32.574,32.574,0,0,0-982.2-2.051a30.468,30.468,0,0,0,10.464-8.263l1.452-1.9.333,2.369a16.544,16.544,0,0,0,1.975,6.375h0C-966.243-.75-963.5.572-959.595.572a31.215,31.215,0,0,0,3.967-.2,29.422,29.422,0,0,0,3.51-.793V-7.579c-.375.053-.739.1-1.088.131C-953.919-7.376-954.574-7.34-955.151-7.34Zm122.568-68.65a52.594,52.594,0,0,1,11.935,1.257,32.624,32.624,0,0,1,9.573,3.811c5.626,3.462,8.477,8.9,8.477,16.166v42.178a4.467,4.467,0,0,0,.615,2.516c.315.466,1.2.722,2.487.722.511,0,1.1-.033,1.746-.1s1.366-.165,2.113-.3l1.174-.207V1.1l-.725.207A34.8,34.8,0,0,1-799.7,2.358a33.027,33.027,0,0,1-4.237.215c-4.582,0-7.971-1.674-10.072-4.975l0,0A15.749,15.749,0,0,1-815.9-7.424a34.478,34.478,0,0,1-9.732,7.151,34.556,34.556,0,0,1-15.975,3.734,27.5,27.5,0,0,1-9.6-1.609A22.413,22.413,0,0,1-858.944-3a21.641,21.641,0,0,1-5.076-7.3,23,23,0,0,1-1.692-8.9,25.154,25.154,0,0,1,1.662-9.414,18.753,18.753,0,0,1,5.034-7.127,27.223,27.223,0,0,1,7.628-4.7A37.269,37.269,0,0,1-841.8-42.9l19.62-2.461c2.485-.321,4.087-1.3,4.9-2.994l.008-.017a9.939,9.939,0,0,0,.715-4.269c0-3.862-1.312-6.57-4.013-8.281-2.809-1.78-6.941-2.682-12.283-2.682a22.36,22.36,0,0,0-7.882,1.234,11.24,11.24,0,0,0-5,3.575l0,0c-1.382,1.759-2.3,4.466-2.733,8.047l-.106.88h-13.4l.026-1.025a29.89,29.89,0,0,1,2.46-11.873A17.968,17.968,0,0,1-852.7-70.54a34.673,34.673,0,0,1,9.388-4.091A41.134,41.134,0,0,1-832.583-75.99ZM-799.5-7.34c-2.031,0-3.425-.539-4.144-1.6a6.392,6.392,0,0,1-.958-3.637V-54.756a18.343,18.343,0,0,0-1.886-8.561,15.178,15.178,0,0,0-5.636-5.9,30.64,30.64,0,0,0-8.984-3.57,50.6,50.6,0,0,0-11.478-1.2,39.141,39.141,0,0,0-10.206,1.29,32.667,32.667,0,0,0-8.847,3.855,16,16,0,0,0-6.042,6.933,27.016,27.016,0,0,0-2.235,10.053h9.571a17.245,17.245,0,0,1,3.028-8.163h0a13.21,13.21,0,0,1,5.866-4.214,24.326,24.326,0,0,1,8.592-1.364,35.488,35.488,0,0,1,7.59.733,18.015,18.015,0,0,1,5.763,2.26c3.279,2.077,4.942,5.432,4.942,9.97a11.654,11.654,0,0,1-.921,5.155c-1.109,2.317-3.277,3.7-6.445,4.109l-19.623,2.461a35.282,35.282,0,0,0-9.073,2.307,25.224,25.224,0,0,0-7.07,4.355,16.77,16.77,0,0,0-4.5,6.374,23.178,23.178,0,0,0-1.517,8.667,21.023,21.023,0,0,0,1.538,8.134,19.65,19.65,0,0,0,4.614,6.627,20.425,20.425,0,0,0,7.048,4.425,25.521,25.521,0,0,0,8.905,1.484,32.574,32.574,0,0,0,15.06-3.513,30.467,30.467,0,0,0,10.464-8.263l1.452-1.9.333,2.369a16.543,16.543,0,0,0,1.975,6.375h0c1.734,2.721,4.476,4.044,8.382,4.044a31.216,31.216,0,0,0,3.967-.2,29.424,29.424,0,0,0,3.51-.793V-7.579c-.375.053-.739.1-1.088.131C-798.265-7.376-798.919-7.34-799.5-7.34Zm376.523-68.65a28.743,28.743,0,0,1,11.913,2.472,30.461,30.461,0,0,1,9.95,7.39,31.967,31.967,0,0,1,6.725,11.948,52.83,52.83,0,0,1,2.217,15.966,61.079,61.079,0,0,1-3.189,20.852,32.123,32.123,0,0,1-9.687,14.1,29.425,29.425,0,0,1-8.881,5.04,30.679,30.679,0,0,1-10.21,1.68c-5.684,0-10.536-1.273-14.42-3.783h0a28.217,28.217,0,0,1-5.772-5.154V30.19h-14.3V-73.871h13.963v7.853a29.092,29.092,0,0,1,6.519-5.707A27.064,27.064,0,0,1-422.974-75.99Zm-1.162,77.451A28.692,28.692,0,0,0-414.59-.106a27.439,27.439,0,0,0,8.277-4.7,27.77,27.77,0,0,0,5.282-5.774,33.594,33.594,0,0,0,3.8-7.468,59.121,59.121,0,0,0,3.066-20.164,50.845,50.845,0,0,0-2.123-15.359,29.99,29.99,0,0,0-6.3-11.209,28.482,28.482,0,0,0-9.294-6.914,26.758,26.758,0,0,0-11.09-2.3,28.155,28.155,0,0,0-7.591.988,23.08,23.08,0,0,0-6.487,2.948l-.02.013a29.017,29.017,0,0,0-7.792,7.471l-1.8,2.439V-71.871h-9.963V28.19h10.3V-11.032l1.778,2.2a31.171,31.171,0,0,0,7.066,6.822l.013.008a20.539,20.539,0,0,0,5.982,2.59A29.2,29.2,0,0,0-424.136,1.461ZM721.225-75.99a52.6,52.6,0,0,1,11.935,1.257,32.627,32.627,0,0,1,9.572,3.811c5.626,3.462,8.477,8.9,8.477,16.166v42.178a4.467,4.467,0,0,0,.615,2.516c.315.466,1.2.722,2.487.722.511,0,1.1-.033,1.746-.1s1.367-.165,2.113-.3l1.174-.208V1.1l-.725.207a34.8,34.8,0,0,1-4.514,1.055,33.025,33.025,0,0,1-4.237.215C745.285,2.572,741.9.9,739.8-2.4l0,0a15.734,15.734,0,0,1-1.884-5.017,34.477,34.477,0,0,1-9.732,7.151A34.553,34.553,0,0,1,712.2,3.461a27.508,27.508,0,0,1-9.6-1.609A22.413,22.413,0,0,1,694.865-3a21.64,21.64,0,0,1-5.076-7.3,23,23,0,0,1-1.692-8.9,25.153,25.153,0,0,1,1.662-9.414,18.753,18.753,0,0,1,5.034-7.127,27.224,27.224,0,0,1,7.628-4.7,37.27,37.27,0,0,1,9.589-2.444l19.62-2.461c2.485-.321,4.087-1.3,4.9-2.994l.008-.016a9.949,9.949,0,0,0,.714-4.27c0-3.862-1.312-6.57-4.012-8.281-2.809-1.78-6.941-2.682-12.282-2.682a22.362,22.362,0,0,0-7.882,1.234,11.24,11.24,0,0,0-5,3.575l0,0c-1.382,1.759-2.3,4.466-2.733,8.047l-.106.88h-13.4l.026-1.025a29.891,29.891,0,0,1,2.46-11.873,17.966,17.966,0,0,1,6.792-7.782,34.673,34.673,0,0,1,9.388-4.091A41.134,41.134,0,0,1,721.225-75.99ZM754.312-7.34c-2.031,0-3.425-.539-4.144-1.6a6.393,6.393,0,0,1-.958-3.637V-54.756a18.342,18.342,0,0,0-1.886-8.561,15.178,15.178,0,0,0-5.636-5.9,30.637,30.637,0,0,0-8.984-3.57,50.6,50.6,0,0,0-11.478-1.2,39.141,39.141,0,0,0-10.206,1.29,32.667,32.667,0,0,0-8.847,3.855,16,16,0,0,0-6.042,6.933,27.023,27.023,0,0,0-2.235,10.053h9.571a17.245,17.245,0,0,1,3.028-8.163h0a13.21,13.21,0,0,1,5.866-4.214,24.33,24.33,0,0,1,8.593-1.364,35.49,35.49,0,0,1,7.59.733,18.016,18.016,0,0,1,5.762,2.26c3.279,2.077,4.942,5.432,4.942,9.97a11.675,11.675,0,0,1-.918,5.147h0c-1.108,2.322-3.278,3.707-6.449,4.116l-19.623,2.461a35.281,35.281,0,0,0-9.073,2.307,25.223,25.223,0,0,0-7.07,4.355,16.769,16.769,0,0,0-4.5,6.374,23.178,23.178,0,0,0-1.517,8.667,21.024,21.024,0,0,0,1.538,8.134,19.659,19.659,0,0,0,4.614,6.627A20.424,20.424,0,0,0,703.3-.023,25.523,25.523,0,0,0,712.2,1.461a32.571,32.571,0,0,0,15.06-3.513,30.468,30.468,0,0,0,10.464-8.263l1.452-1.9.333,2.369a16.553,16.553,0,0,0,1.972,6.37h0c1.734,2.724,4.476,4.049,8.385,4.049a31.216,31.216,0,0,0,3.967-.2,29.424,29.424,0,0,0,3.51-.793V-7.579c-.375.053-.738.1-1.088.131C755.544-7.376,754.889-7.34,754.312-7.34ZM970.19-75.99a52.594,52.594,0,0,1,11.935,1.257,32.621,32.621,0,0,1,9.572,3.811c5.626,3.462,8.477,8.9,8.477,16.166v42.178a4.47,4.47,0,0,0,.615,2.516c.315.465,1.2.722,2.487.722.511,0,1.1-.033,1.746-.1s1.367-.165,2.113-.3l1.174-.208V1.1l-.725.207a34.759,34.759,0,0,1-4.515,1.055,33.006,33.006,0,0,1-4.236.215c-4.583,0-7.972-1.674-10.072-4.975l0,0a15.75,15.75,0,0,1-1.884-5.017,34.475,34.475,0,0,1-9.732,7.151,34.553,34.553,0,0,1-15.975,3.734,27.509,27.509,0,0,1-9.6-1.609A22.412,22.412,0,0,1,943.83-3a21.64,21.64,0,0,1-5.076-7.3,23,23,0,0,1-1.692-8.9,25.153,25.153,0,0,1,1.662-9.414,18.75,18.75,0,0,1,5.034-7.127,27.223,27.223,0,0,1,7.628-4.7,37.267,37.267,0,0,1,9.589-2.444l19.62-2.461c2.485-.321,4.088-1.3,4.9-2.994l.008-.016a9.945,9.945,0,0,0,.715-4.27c0-3.862-1.312-6.57-4.013-8.281-2.809-1.78-6.941-2.682-12.282-2.682a22.363,22.363,0,0,0-7.882,1.234,11.237,11.237,0,0,0-5,3.575l0,0c-1.383,1.759-2.3,4.467-2.733,8.047l-.106.88H940.8l.026-1.025a29.89,29.89,0,0,1,2.46-11.873,17.967,17.967,0,0,1,6.792-7.782,34.673,34.673,0,0,1,9.388-4.091A41.134,41.134,0,0,1,970.19-75.99Zm33.086,68.65c-2.03,0-3.424-.539-4.144-1.6a6.393,6.393,0,0,1-.958-3.637V-54.756a18.343,18.343,0,0,0-1.886-8.561,15.175,15.175,0,0,0-5.636-5.9,30.639,30.639,0,0,0-8.984-3.57,50.6,50.6,0,0,0-11.478-1.2,39.137,39.137,0,0,0-10.206,1.29,32.668,32.668,0,0,0-8.847,3.855,16,16,0,0,0-6.042,6.933,27.023,27.023,0,0,0-2.235,10.053h9.571a17.244,17.244,0,0,1,3.028-8.163h0a13.21,13.21,0,0,1,5.866-4.214,24.327,24.327,0,0,1,8.593-1.364,35.488,35.488,0,0,1,7.59.733,18.015,18.015,0,0,1,5.763,2.26c3.279,2.077,4.942,5.432,4.942,9.97a11.673,11.673,0,0,1-.918,5.147h0c-1.108,2.322-3.278,3.707-6.449,4.116l-19.622,2.461A35.277,35.277,0,0,0,952.15-38.6a25.222,25.222,0,0,0-7.07,4.355,16.771,16.771,0,0,0-4.5,6.374,23.185,23.185,0,0,0-1.517,8.667,21.023,21.023,0,0,0,1.538,8.134,19.65,19.65,0,0,0,4.614,6.627,20.424,20.424,0,0,0,7.048,4.425,25.523,25.523,0,0,0,8.906,1.484,32.571,32.571,0,0,0,15.06-3.513,30.468,30.468,0,0,0,10.464-8.263l1.452-1.9.333,2.369a16.544,16.544,0,0,0,1.975,6.375h0C992.185-.75,994.927.572,998.833.572a31.192,31.192,0,0,0,3.966-.2,29.392,29.392,0,0,0,3.51-.793V-7.579c-.375.053-.738.1-1.088.131C1004.508-7.376,1003.854-7.34,1003.276-7.34ZM-1212.183-75.854a34.537,34.537,0,0,1,15.555,3.763,28.964,28.964,0,0,1,11.53,9.811A33.791,33.791,0,0,1-1180.029-49c.738,3.428,1.112,8.919,1.112,16.323v1h-53.62a38.067,38.067,0,0,0,1.4,8.758,24.341,24.341,0,0,0,3.625,7.528,14.376,14.376,0,0,0,5.869,4.725,21.181,21.181,0,0,0,8.568,1.6,21.61,21.61,0,0,0,8.282-1.514,17.556,17.556,0,0,0,6.356-4.514A20.533,20.533,0,0,0-1194-23.24l.205-.729h13.983l-.133,1.118a26.582,26.582,0,0,1-3.294,9.35,33.124,33.124,0,0,1-6.233,8.341,29.782,29.782,0,0,1-14.338,7.636A43.358,43.358,0,0,1-1214.1,3.6a32.819,32.819,0,0,1-13.024-2.568,33.149,33.149,0,0,1-10.873-7.688,33.1,33.1,0,0,1-7.35-12.3,50.436,50.436,0,0,1-2.429-16.242,51.458,51.458,0,0,1,2.444-16.3,38.072,38.072,0,0,1,7.372-13,32.317,32.317,0,0,1,11.392-8.514A35.511,35.511,0,0,1-1212.183-75.854Zm31.263,42.178c-.032-6.769-.391-11.786-1.069-14.921l-.009-.047a31.819,31.819,0,0,0-4.767-12.53l0,0a27,27,0,0,0-10.755-9.124,32.561,32.561,0,0,0-14.66-3.552,33.525,33.525,0,0,0-13.577,2.667,30.34,30.34,0,0,0-10.688,8,36.079,36.079,0,0,0-6.984,12.324,49.46,49.46,0,0,0-2.341,15.662,48.449,48.449,0,0,0,2.322,15.6,31.1,31.1,0,0,0,6.9,11.569,31.163,31.163,0,0,0,10.216,7.231A30.831,30.831,0,0,0-1214.1,1.6a41.353,41.353,0,0,0,9.81-1.065l.014,0a30.132,30.132,0,0,0,7.361-2.711,26.421,26.421,0,0,0,6.043-4.413l.014-.013a31.136,31.136,0,0,0,5.856-7.85,26.547,26.547,0,0,0,2.889-7.511H-1192.3a22.451,22.451,0,0,1-4.646,8.209l-.005.006a19.546,19.546,0,0,1-7.076,5.022,23.6,23.6,0,0,1-9.046,1.665,23.148,23.148,0,0,1-9.376-1.769,16.347,16.347,0,0,1-6.675-5.375,26.321,26.321,0,0,1-3.929-8.143,41.073,41.073,0,0,1-1.527-10.292l-.031-1.031Zm606.872-42.178a34.534,34.534,0,0,1,15.554,3.763,28.966,28.966,0,0,1,11.531,9.811A33.8,33.8,0,0,1-541.894-49c.738,3.426,1.112,8.918,1.112,16.323v1H-594.4a38.067,38.067,0,0,0,1.4,8.758,24.352,24.352,0,0,0,3.625,7.528,14.379,14.379,0,0,0,5.869,4.725,21.181,21.181,0,0,0,8.568,1.6,21.611,21.611,0,0,0,8.283-1.514,17.558,17.558,0,0,0,6.356-4.514,20.533,20.533,0,0,0,4.428-8.145l.205-.729h13.982l-.133,1.118a26.581,26.581,0,0,1-3.294,9.35,33.116,33.116,0,0,1-6.233,8.341,29.786,29.786,0,0,1-14.338,7.636A43.354,43.354,0,0,1-575.962,3.6,32.818,32.818,0,0,1-588.986,1.03a33.15,33.15,0,0,1-10.873-7.688,33.089,33.089,0,0,1-7.35-12.3,50.432,50.432,0,0,1-2.429-16.242,51.455,51.455,0,0,1,2.444-16.3,38.073,38.073,0,0,1,7.372-13,32.318,32.318,0,0,1,11.392-8.514A35.511,35.511,0,0,1-574.048-75.854Zm31.263,42.178c-.032-6.771-.391-11.787-1.069-14.921l-.009-.047a31.83,31.83,0,0,0-4.768-12.53l0,0A27,27,0,0,0-559.388-70.3a32.556,32.556,0,0,0-14.66-3.552,33.526,33.526,0,0,0-13.577,2.667,30.34,30.34,0,0,0-10.688,8A36.08,36.08,0,0,0-605.3-50.867a49.462,49.462,0,0,0-2.341,15.662,48.451,48.451,0,0,0,2.322,15.6,31.106,31.106,0,0,0,6.9,11.569A31.164,31.164,0,0,0-588.2-.808,30.831,30.831,0,0,0-575.962,1.6a41.348,41.348,0,0,0,9.81-1.065l.014,0a30.134,30.134,0,0,0,7.361-2.711,26.421,26.421,0,0,0,6.043-4.413l.014-.013a31.133,31.133,0,0,0,5.856-7.85,26.55,26.55,0,0,0,2.889-7.511h-10.187a22.446,22.446,0,0,1-4.645,8.209l-.005.006a19.553,19.553,0,0,1-7.076,5.022,23.6,23.6,0,0,1-9.047,1.665,23.148,23.148,0,0,1-9.376-1.769,16.352,16.352,0,0,1-6.675-5.375,26.341,26.341,0,0,1-3.929-8.143,41.073,41.073,0,0,1-1.527-10.292l-.031-1.031Zm194.46-42.178a34.537,34.537,0,0,1,15.555,3.763,28.964,28.964,0,0,1,11.53,9.811A33.794,33.794,0,0,1-316.171-49c.738,3.428,1.112,8.919,1.112,16.323v1h-53.62a38.07,38.07,0,0,0,1.4,8.758,24.343,24.343,0,0,0,3.625,7.528,14.377,14.377,0,0,0,5.869,4.725,21.181,21.181,0,0,0,8.568,1.6,21.61,21.61,0,0,0,8.283-1.514,17.558,17.558,0,0,0,6.356-4.514,20.534,20.534,0,0,0,4.428-8.145l.205-.729h13.982l-.133,1.118a26.583,26.583,0,0,1-3.294,9.35,33.121,33.121,0,0,1-6.243,8.351,29.787,29.787,0,0,1-14.328,7.626A43.351,43.351,0,0,1-350.239,3.6,32.819,32.819,0,0,1-363.263,1.03a33.15,33.15,0,0,1-10.873-7.688,33.088,33.088,0,0,1-7.35-12.3,50.424,50.424,0,0,1-2.429-16.242,51.455,51.455,0,0,1,2.444-16.3,38.066,38.066,0,0,1,7.371-13,32.322,32.322,0,0,1,11.392-8.514A35.511,35.511,0,0,1-348.325-75.854Zm31.263,42.178c-.032-6.769-.391-11.786-1.069-14.921l-.009-.047a31.822,31.822,0,0,0-4.768-12.53l0,0A27,27,0,0,0-333.665-70.3a32.56,32.56,0,0,0-14.66-3.552A33.525,33.525,0,0,0-361.9-71.187a30.341,30.341,0,0,0-10.688,8,36.08,36.08,0,0,0-6.984,12.324,49.462,49.462,0,0,0-2.341,15.662,48.442,48.442,0,0,0,2.322,15.6,31.1,31.1,0,0,0,6.9,11.569A31.162,31.162,0,0,0-362.474-.808,30.831,30.831,0,0,0-350.239,1.6,41.346,41.346,0,0,0-340.43.533l.014,0a30.132,30.132,0,0,0,7.361-2.711,26.421,26.421,0,0,0,6.044-4.413l.014-.013a31.131,31.131,0,0,0,5.856-7.85,26.549,26.549,0,0,0,2.889-7.511H-328.44a22.451,22.451,0,0,1-4.646,8.209l-.005.006a19.553,19.553,0,0,1-7.076,5.022,23.6,23.6,0,0,1-9.046,1.665,23.148,23.148,0,0,1-9.376-1.769,16.347,16.347,0,0,1-6.675-5.375,26.324,26.324,0,0,1-3.929-8.143,41.076,41.076,0,0,1-1.527-10.292l-.031-1.031Zm48.1-42.178c.258,0,.665.024,1.245.072.541.045,1.464.135,2.822.275l.9.093v15.1l-1.184-.222a17.522,17.522,0,0,0-1.906-.259c-.585-.043-1.238-.065-1.943-.065a20.248,20.248,0,0,0-7.834,1.418,14.757,14.757,0,0,0-5.685,4.2,20.467,20.467,0,0,0-3.57,6.134,20.5,20.5,0,0,0-1.187,7V1h-14.3V-74.213h13.689v9.852a42.407,42.407,0,0,1,5.354-5.922A19.3,19.3,0,0,1-268.96-75.854ZM-266-73.609c-.864-.087-1.484-.146-1.885-.18-.645-.054-.943-.065-1.08-.065a17.061,17.061,0,0,0-6.508,1.25,18.706,18.706,0,0,0-5.725,3.775c-3.611,3.413-5.9,6.315-6.8,8.625l-1.932-.362V-72.213h-9.689V-1h10.3V-42.109a21.946,21.946,0,0,1,5.222-14.415c3.51-4.208,8.575-6.341,15.055-6.341.754,0,1.457.024,2.091.071.3.022.616.055.943.1Zm73.256-2.245a34.534,34.534,0,0,1,15.554,3.763,28.966,28.966,0,0,1,11.531,9.811A33.8,33.8,0,0,1-160.585-49c.738,3.426,1.112,8.918,1.112,16.323v1h-53.62a38.066,38.066,0,0,0,1.4,8.758,24.342,24.342,0,0,0,3.625,7.528,14.379,14.379,0,0,0,5.869,4.725,21.181,21.181,0,0,0,8.568,1.6,21.611,21.611,0,0,0,8.283-1.514,17.558,17.558,0,0,0,6.356-4.514,20.533,20.533,0,0,0,4.428-8.145l.205-.729h13.982l-.133,1.118A26.581,26.581,0,0,1-163.8-13.5a33.117,33.117,0,0,1-6.243,8.351A29.787,29.787,0,0,1-184.37,2.476,43.354,43.354,0,0,1-194.653,3.6,32.819,32.819,0,0,1-207.677,1.03,33.15,33.15,0,0,1-218.55-6.658a33.088,33.088,0,0,1-7.35-12.3,50.423,50.423,0,0,1-2.429-16.242,51.456,51.456,0,0,1,2.444-16.3,38.073,38.073,0,0,1,7.372-13,32.322,32.322,0,0,1,11.392-8.514A35.509,35.509,0,0,1-192.739-75.854Zm31.263,42.178c-.032-6.771-.391-11.787-1.069-14.921l-.009-.047a31.83,31.83,0,0,0-4.768-12.53l0,0A27,27,0,0,0-178.079-70.3a32.557,32.557,0,0,0-14.66-3.552,33.523,33.523,0,0,0-13.577,2.667,30.341,30.341,0,0,0-10.688,8,36.08,36.08,0,0,0-6.984,12.324,49.461,49.461,0,0,0-2.341,15.662,48.442,48.442,0,0,0,2.322,15.6,31.1,31.1,0,0,0,6.9,11.569A31.162,31.162,0,0,0-206.888-.808,30.831,30.831,0,0,0-194.653,1.6a41.348,41.348,0,0,0,9.81-1.065l.014,0a30.132,30.132,0,0,0,7.361-2.711,26.422,26.422,0,0,0,6.044-4.413l.014-.013a31.131,31.131,0,0,0,5.856-7.85,26.549,26.549,0,0,0,2.889-7.511h-10.187A22.446,22.446,0,0,1-177.5-13.76l-.005.006a19.553,19.553,0,0,1-7.076,5.022,23.6,23.6,0,0,1-9.047,1.665A23.148,23.148,0,0,1-203-8.835a16.352,16.352,0,0,1-6.675-5.375,26.328,26.328,0,0,1-3.929-8.143,41.071,41.071,0,0,1-1.527-10.292l-.031-1.031Zm51.725-42.178a29.363,29.363,0,0,1,13.515,2.829A19.1,19.1,0,0,1-87.8-64.434a27.2,27.2,0,0,1,2.348,7.5,58.04,58.04,0,0,1,.767,9.966V1H-99.2V-46.143a24.148,24.148,0,0,0-1.883-10.366,10.48,10.48,0,0,0-4.212-4.695,13.491,13.491,0,0,0-6.782-1.576,23.383,23.383,0,0,0-6.876.842l-.017.005a17.587,17.587,0,0,0-8.409,5.7,17.213,17.213,0,0,0-3.789,7.071,49.743,49.743,0,0,0-.9,10.807V1h-14.3V-74.213h13.69v8.688a31.9,31.9,0,0,1,9.571-7.427A30.474,30.474,0,0,1-109.751-75.854ZM-86.688-1V-46.963c0-7.19-.976-12.765-2.9-16.57a17.879,17.879,0,0,0-3.188-4.506,17.091,17.091,0,0,0-4.376-3.208,27.412,27.412,0,0,0-12.6-2.606,28.49,28.49,0,0,0-12.485,2.7A31.963,31.963,0,0,0-132.9-62.194l-1.777,2.2V-72.213h-9.69V-1h10.3V-38.35a51.549,51.549,0,0,1,.95-11.272,19.171,19.171,0,0,1,4.21-7.9,19.549,19.549,0,0,1,9.361-6.326,25.344,25.344,0,0,1,7.465-.931c6.133,0,10.438,2.491,12.8,7.4A26.062,26.062,0,0,1-97.2-46.143V-1ZM32.983-75.854A34.537,34.537,0,0,1,48.538-72.09a28.964,28.964,0,0,1,11.53,9.811A33.792,33.792,0,0,1,65.137-49c.738,3.428,1.112,8.919,1.112,16.323v1H12.629a38.069,38.069,0,0,0,1.4,8.758,24.343,24.343,0,0,0,3.625,7.528,14.377,14.377,0,0,0,5.869,4.725,21.181,21.181,0,0,0,8.568,1.6,21.61,21.61,0,0,0,8.283-1.514,17.555,17.555,0,0,0,6.356-4.514,20.534,20.534,0,0,0,4.428-8.145l.205-.729H65.349l-.132,1.118a26.584,26.584,0,0,1-3.294,9.35A33.122,33.122,0,0,1,55.69-5.16,29.782,29.782,0,0,1,41.352,2.476,43.358,43.358,0,0,1,31.069,3.6,32.819,32.819,0,0,1,18.045,1.03,33.15,33.15,0,0,1,7.172-6.658a33.1,33.1,0,0,1-7.35-12.3A50.433,50.433,0,0,1-2.606-35.205,51.456,51.456,0,0,1-.162-51.5a38.072,38.072,0,0,1,7.371-13A32.322,32.322,0,0,1,18.6-73.018,35.511,35.511,0,0,1,32.983-75.854ZM64.247-33.676c-.032-6.769-.391-11.786-1.069-14.921l-.009-.047A31.819,31.819,0,0,0,58.4-61.174l0,0A27,27,0,0,0,47.644-70.3a32.56,32.56,0,0,0-14.66-3.552,33.525,33.525,0,0,0-13.577,2.667,30.341,30.341,0,0,0-10.688,8A36.084,36.084,0,0,0,1.735-50.867,49.462,49.462,0,0,0-.606-35.205a48.451,48.451,0,0,0,2.322,15.6,31.1,31.1,0,0,0,6.9,11.569A31.162,31.162,0,0,0,18.834-.808,30.831,30.831,0,0,0,31.069,1.6,41.352,41.352,0,0,0,40.879.533l.014,0a30.124,30.124,0,0,0,7.36-2.711A26.43,26.43,0,0,0,54.3-6.595l.014-.013a31.136,31.136,0,0,0,5.856-7.85,26.549,26.549,0,0,0,2.889-7.511H52.869a22.45,22.45,0,0,1-4.646,8.209l-.005.006a19.547,19.547,0,0,1-7.076,5.022,23.6,23.6,0,0,1-9.046,1.665,23.148,23.148,0,0,1-9.376-1.769,16.347,16.347,0,0,1-6.675-5.375,26.325,26.325,0,0,1-3.929-8.143,41.076,41.076,0,0,1-1.527-10.292l-.031-1.031ZM561.128-75.854c.258,0,.665.024,1.245.072.541.045,1.464.135,2.822.275l.9.093v15.1l-1.184-.222A17.453,17.453,0,0,0,563-60.8c-.585-.043-1.239-.065-1.943-.065a20.25,20.25,0,0,0-7.834,1.418,14.76,14.76,0,0,0-5.685,4.2,20.467,20.467,0,0,0-3.57,6.134,20.494,20.494,0,0,0-1.187,7V1h-14.3V-74.213h13.689v9.852a42.407,42.407,0,0,1,5.354-5.922A19.306,19.306,0,0,1,561.128-75.854Zm2.965,2.245c-.864-.087-1.484-.146-1.885-.18-.645-.054-.943-.065-1.08-.065a17.061,17.061,0,0,0-6.508,1.25,18.714,18.714,0,0,0-5.725,3.775c-3.611,3.413-5.9,6.315-6.8,8.625l-1.932-.362V-72.213h-9.689V-1h10.3V-42.109A21.946,21.946,0,0,1,546-56.524c3.51-4.208,8.576-6.341,15.055-6.341.754,0,1.457.024,2.091.071.3.022.616.055.943.1Zm625.736-2.245a34.537,34.537,0,0,1,15.555,3.763,28.964,28.964,0,0,1,11.53,9.811A33.794,33.794,0,0,1,1221.983-49c.738,3.428,1.112,8.919,1.112,16.323v1h-53.62a38.073,38.073,0,0,0,1.4,8.758,24.344,24.344,0,0,0,3.625,7.528,14.377,14.377,0,0,0,5.869,4.725,21.18,21.18,0,0,0,8.568,1.6,21.61,21.61,0,0,0,8.283-1.514,17.559,17.559,0,0,0,6.356-4.514,20.535,20.535,0,0,0,4.428-8.145l.205-.729H1222.2l-.132,1.118a26.583,26.583,0,0,1-3.294,9.35,33.123,33.123,0,0,1-6.243,8.351A29.787,29.787,0,0,1,1198.2,2.476,43.352,43.352,0,0,1,1187.915,3.6a32.819,32.819,0,0,1-13.024-2.568,33.15,33.15,0,0,1-10.873-7.688,33.088,33.088,0,0,1-7.35-12.3,50.422,50.422,0,0,1-2.429-16.242,51.454,51.454,0,0,1,2.444-16.3,38.065,38.065,0,0,1,7.371-13,32.322,32.322,0,0,1,11.392-8.514A35.511,35.511,0,0,1,1189.829-75.854Zm31.263,42.178c-.032-6.769-.391-11.786-1.069-14.921l-.009-.047a31.822,31.822,0,0,0-4.767-12.53l0,0a27,27,0,0,0-10.755-9.124,32.56,32.56,0,0,0-14.66-3.552,33.525,33.525,0,0,0-13.577,2.667,30.341,30.341,0,0,0-10.688,8,36.08,36.08,0,0,0-6.984,12.324,49.465,49.465,0,0,0-2.341,15.662,48.444,48.444,0,0,0,2.322,15.6,31.1,31.1,0,0,0,6.9,11.569A31.162,31.162,0,0,0,1175.68-.808,30.831,30.831,0,0,0,1187.915,1.6a41.346,41.346,0,0,0,9.81-1.065l.014,0a30.132,30.132,0,0,0,7.361-2.711,26.42,26.42,0,0,0,6.044-4.413l.014-.013a31.132,31.132,0,0,0,5.856-7.85,26.548,26.548,0,0,0,2.889-7.511h-10.187a22.45,22.45,0,0,1-4.646,8.209l-.005.006a19.554,19.554,0,0,1-7.076,5.022,23.6,23.6,0,0,1-9.047,1.665,23.147,23.147,0,0,1-9.376-1.769,16.348,16.348,0,0,1-6.675-5.375,26.326,26.326,0,0,1-3.929-8.143,41.079,41.079,0,0,1-1.527-10.292l-.031-1.031Zm48.1-42.178c.258,0,.665.024,1.245.072.541.045,1.464.135,2.822.275l.9.093v15.1l-1.184-.222a17.522,17.522,0,0,0-1.906-.259c-.585-.043-1.238-.065-1.943-.065a20.249,20.249,0,0,0-7.834,1.418,14.757,14.757,0,0,0-5.685,4.2,20.467,20.467,0,0,0-3.57,6.134,20.493,20.493,0,0,0-1.187,7V1h-14.3V-74.213h13.689v9.852a42.409,42.409,0,0,1,5.354-5.922A19.3,19.3,0,0,1,1269.194-75.854Zm2.965,2.245c-.864-.087-1.484-.146-1.885-.18-.645-.054-.943-.065-1.08-.065a17.062,17.062,0,0,0-6.508,1.25,18.706,18.706,0,0,0-5.725,3.775c-3.611,3.413-5.9,6.315-6.8,8.625l-1.932-.362V-72.213h-9.689V-1h10.3V-42.109a21.946,21.946,0,0,1,5.222-14.415c3.51-4.208,8.575-6.341,15.055-6.341.754,0,1.457.024,2.091.071.3.022.616.055.943.1Zm-1756.571-.617.552.013,16.836.384-1.068,1.53-24.281,34.774L-465.918,1h-18.16l-.3-.448-17.337-26.2L-518.814,1h-18.032l26.458-38.53-25.158-36.683h18.367l.3.454,15.984,24.5Zm-33.85,2.012h-13.488l23.787,34.684-.389.566L-533.047-1h13.14l18.17-28.312L-483-1h13.286l-25.088-36.534.4-.568L-470.8-71.914l-12.553-.287-17.556,26.581Zm628.392-2h15.581l.186.763,13.117,53.744,13.5-54.507h15.372l.189.757L181.48-19.9l14.178-54.317h14.409l-.371,1.279L188.227,1H173.921L159.806-52.678,146.144,1H131.831Zm14.011,2H112.789L133.335-1h11.254l15.185-59.662L175.463-1h11.261L207.4-72.213H197.2L182.428-15.607l-1.937-.01-14.166-56.6H154.078l-14.1,56.936-1.942,0Zm489.238-2h14.578v49.6A19.624,19.624,0,0,0,629.63-15.9a10.065,10.065,0,0,0,4.278,4.488,14.885,14.885,0,0,0,7.064,1.522,18.383,18.383,0,0,0,10.252-2.707,17.1,17.1,0,0,0,6.321-8.153l0-.005c1.629-3.96,2.454-9.513,2.454-16.5V-74.213h14.3V1H660.672l.107-8.409A25.284,25.284,0,0,1,656.5-2.982a25.773,25.773,0,0,1-8.1,4.477,30.153,30.153,0,0,1-9.615,1.487,30.844,30.844,0,0,1-13.6-2.717A19.258,19.258,0,0,1,616.577-8a24.382,24.382,0,0,1-2.408-6.821,43.221,43.221,0,0,1-.79-8.626Zm12.578,2H615.38v48.766c0,6.044.994,10.919,2.953,14.49a17.651,17.651,0,0,0,3.276,4.335,17.6,17.6,0,0,0,4.456,3.092A28.893,28.893,0,0,0,638.784.982,28.156,28.156,0,0,0,647.763-.4a23.773,23.773,0,0,0,7.479-4.134,23.944,23.944,0,0,0,5.712-6.764l1.916-3.34L662.7-1h9.608V-72.213H662v34.957c0,7.253-.876,13.062-2.6,17.265h0c-3.253,8.032-9.451,12.1-18.425,12.1-6.352,0-10.77-2.394-13.13-7.115a21.552,21.552,0,0,1-1.883-9.607Zm-881.289-1.658h14.51V1h-14.51Zm12.51,2h-10.51V-1h10.51Zm462.178-2h14.51V1h-14.51Zm12.51,2h-10.51V-1h10.51Zm265.166-2h14.51V1h-14.51Zm12.51,2h-10.51V-1h10.51Zm-935.318,6.682c8.888,0,15.089,4.284,18.43,12.732a41.44,41.44,0,0,1,2.6,15.407,50.637,50.637,0,0,1-1.46,12.825,25.45,25.45,0,0,1-4.464,9.363c-3.987,5.037-9.069,7.591-15.105,7.591-8.878,0-15.075-4.024-18.421-11.959a37.955,37.955,0,0,1-2.608-14.812c0-7.1.872-13.064,2.591-17.71C-440.925-60.669-434.721-65.189-425.776-65.189Zm0,55.918a16.374,16.374,0,0,0,7.437-1.7,18.425,18.425,0,0,0,6.1-5.136,23.465,23.465,0,0,0,4.1-8.633,48.648,48.648,0,0,0,1.394-12.314A39.462,39.462,0,0,0-409.2-51.716l0-.005a18.341,18.341,0,0,0-6.406-8.62,17.519,17.519,0,0,0-10.164-2.847,16.863,16.863,0,0,0-10.177,3,19.161,19.161,0,0,0-6.385,9.126c-1.637,4.425-2.467,10.15-2.467,17.017a36,36,0,0,0,2.45,14.033,17.307,17.307,0,0,0,6.391,8.063A18.429,18.429,0,0,0-425.776-9.271Zm-787.158-55.85c8.233,0,14.206,3.16,17.754,9.392,1.885,3.3,3.1,7.734,3.613,13.184l.1,1.094h-42.809l.037-1.036a27.178,27.178,0,0,1,1.76-8.933,22.616,22.616,0,0,1,4.594-7.267A19.761,19.761,0,0,1-1212.935-65.121Zm19.261,21.67a29.791,29.791,0,0,0-3.245-11.287,15.682,15.682,0,0,0-6.348-6.276,20.623,20.623,0,0,0-9.668-2.106,18.6,18.6,0,0,0-7.4,1.448,18.273,18.273,0,0,0-6.092,4.354,20.619,20.619,0,0,0-4.19,6.627,24.618,24.618,0,0,0-1.569,7.24ZM-574.8-65.121c8.233,0,14.206,3.16,17.754,9.392,1.885,3.3,3.1,7.734,3.613,13.184l.1,1.094H-596.14l.038-1.036a27.177,27.177,0,0,1,1.76-8.933,22.623,22.623,0,0,1,4.594-7.267A19.76,19.76,0,0,1-574.8-65.121Zm19.261,21.67a29.779,29.779,0,0,0-3.245-11.287,15.679,15.679,0,0,0-6.348-6.276,20.625,20.625,0,0,0-9.669-2.106,18.6,18.6,0,0,0-7.4,1.448,18.271,18.271,0,0,0-6.091,4.354,20.626,20.626,0,0,0-4.19,6.627,24.626,24.626,0,0,0-1.569,7.24Zm206.462-21.67c8.233,0,14.206,3.16,17.754,9.392,1.885,3.3,3.1,7.734,3.613,13.184l.1,1.094h-42.809l.038-1.036a27.175,27.175,0,0,1,1.76-8.933,22.616,22.616,0,0,1,4.594-7.267A19.761,19.761,0,0,1-349.077-65.121Zm19.261,21.67a29.79,29.79,0,0,0-3.245-11.287,15.682,15.682,0,0,0-6.348-6.276,20.623,20.623,0,0,0-9.668-2.106,18.6,18.6,0,0,0-7.4,1.448,18.272,18.272,0,0,0-6.092,4.354,20.619,20.619,0,0,0-4.19,6.627,24.619,24.619,0,0,0-1.569,7.24Zm136.325-21.67c8.233,0,14.206,3.16,17.754,9.392,1.885,3.3,3.1,7.735,3.613,13.184l.1,1.094h-42.809l.038-1.036a27.175,27.175,0,0,1,1.76-8.933,22.616,22.616,0,0,1,4.594-7.267A19.76,19.76,0,0,1-193.491-65.121Zm19.261,21.67a29.789,29.789,0,0,0-3.244-11.287,15.68,15.68,0,0,0-6.348-6.276,20.624,20.624,0,0,0-9.669-2.106,18.6,18.6,0,0,0-7.4,1.448,18.271,18.271,0,0,0-6.091,4.354,20.619,20.619,0,0,0-4.19,6.627,24.619,24.619,0,0,0-1.569,7.24ZM32.232-65.121c8.233,0,14.206,3.16,17.754,9.392,1.885,3.3,3.1,7.734,3.613,13.184l.1,1.094H10.892l.038-1.036a27.175,27.175,0,0,1,1.76-8.933,22.616,22.616,0,0,1,4.594-7.267A19.761,19.761,0,0,1,32.232-65.121Zm19.261,21.67a29.79,29.79,0,0,0-3.245-11.287A15.682,15.682,0,0,0,41.9-61.015a20.623,20.623,0,0,0-9.668-2.106,18.6,18.6,0,0,0-7.4,1.448,18.272,18.272,0,0,0-6.092,4.354,20.619,20.619,0,0,0-4.19,6.627,24.619,24.619,0,0,0-1.569,7.24Zm1137.585-21.67c8.233,0,14.206,3.16,17.754,9.392,1.885,3.3,3.1,7.734,3.613,13.184l.1,1.094h-42.809l.037-1.036a27.172,27.172,0,0,1,1.76-8.933,22.616,22.616,0,0,1,4.594-7.267A19.761,19.761,0,0,1,1189.077-65.121Zm19.261,21.67a29.789,29.789,0,0,0-3.245-11.287,15.683,15.683,0,0,0-6.348-6.276,20.623,20.623,0,0,0-9.668-2.106,18.6,18.6,0,0,0-7.4,1.448,18.271,18.271,0,0,0-6.092,4.354,20.62,20.62,0,0,0-4.19,6.627,24.622,24.622,0,0,0-1.568,7.24ZM-1433.5-46.322h36.316v14.646H-1433.5Zm34.316,2H-1431.5v10.646h32.316Zm280.769,5.245v11.734c0,7.945-3.639,13.744-10.816,17.237h0A29.179,29.179,0,0,1-1142.251-7a15.486,15.486,0,0,1-9.848-3.291,11.132,11.132,0,0,1-4.277-9.193c0-5.059,2.08-8.8,6.181-11.124,2.365-1.351,5.771-2.309,10.41-2.924l7.464-.959a48.8,48.8,0,0,0,6.832-1.34,20.165,20.165,0,0,0,5.534-2.27ZM-1142.251-9a27.2,27.2,0,0,0,12.135-2.9l.006,0a17.247,17.247,0,0,0,7.281-6.212,17.085,17.085,0,0,0,2.41-9.227v-8.212a25.382,25.382,0,0,1-4.55,1.658,50.784,50.784,0,0,1-7.113,1.394l-7.443.956c-4.312.572-7.57,1.474-9.68,2.679-3.48,1.971-5.17,5.04-5.17,9.386a9.105,9.105,0,0,0,3.516,7.623,12.993,12.993,0,0,0,3.952,2.144A14.705,14.705,0,0,0-1142.251-9Zm171.693-30.079v11.734c0,7.945-3.639,13.744-10.816,17.237h0A29.175,29.175,0,0,1-994.39-7a15.486,15.486,0,0,1-9.848-3.291,11.131,11.131,0,0,1-4.277-9.193c0-5.059,2.08-8.8,6.181-11.124,2.366-1.351,5.772-2.309,10.41-2.924l7.463-.959a48.814,48.814,0,0,0,6.832-1.34,20.179,20.179,0,0,0,5.534-2.27ZM-994.39-9a27.2,27.2,0,0,0,12.135-2.9l.006,0a17.248,17.248,0,0,0,7.281-6.212,17.085,17.085,0,0,0,2.41-9.227v-8.212a25.361,25.361,0,0,1-4.55,1.658,50.808,50.808,0,0,1-7.114,1.394l-7.443.956c-4.312.572-7.57,1.474-9.68,2.679-3.48,1.971-5.17,5.04-5.17,9.386A9.1,9.1,0,0,0-1003-11.859a13,13,0,0,0,3.952,2.144A14.7,14.7,0,0,0-994.39-9ZM-814.9-39.077v11.734c0,7.945-3.639,13.744-10.816,17.237h0A29.175,29.175,0,0,1-838.735-7a15.486,15.486,0,0,1-9.848-3.291,11.131,11.131,0,0,1-4.277-9.193c0-5.059,2.08-8.8,6.181-11.124,2.366-1.351,5.772-2.309,10.41-2.924l7.463-.959a48.813,48.813,0,0,0,6.832-1.34,20.179,20.179,0,0,0,5.534-2.27ZM-838.735-9A27.2,27.2,0,0,0-826.6-11.9l.006,0a17.248,17.248,0,0,0,7.281-6.212,17.085,17.085,0,0,0,2.41-9.227v-8.212a25.361,25.361,0,0,1-4.55,1.658,50.81,50.81,0,0,1-7.114,1.394l-7.443.956c-4.312.572-7.57,1.474-9.68,2.679-3.48,1.971-5.17,5.04-5.17,9.386a9.1,9.1,0,0,0,3.516,7.623,12.994,12.994,0,0,0,3.952,2.144A14.7,14.7,0,0,0-838.735-9ZM738.905-39.077v11.734c0,7.945-3.639,13.744-10.816,17.237h0A29.176,29.176,0,0,1,715.073-7a15.486,15.486,0,0,1-9.848-3.291,11.131,11.131,0,0,1-4.277-9.193c0-5.059,2.08-8.8,6.181-11.124,2.366-1.351,5.772-2.309,10.41-2.924L725-34.489a48.784,48.784,0,0,0,6.832-1.34,20.18,20.18,0,0,0,5.534-2.27ZM715.073-9a27.2,27.2,0,0,0,12.135-2.9l.006,0a17.248,17.248,0,0,0,7.281-6.212,17.085,17.085,0,0,0,2.41-9.227v-8.212a25.362,25.362,0,0,1-4.55,1.658,50.818,50.818,0,0,1-7.114,1.394l-7.443.956c-4.312.572-7.57,1.474-9.68,2.679-3.48,1.971-5.17,5.04-5.17,9.386a9.1,9.1,0,0,0,3.516,7.623,12.994,12.994,0,0,0,3.952,2.144A14.7,14.7,0,0,0,715.073-9Zm272.8-30.079v11.734c0,7.945-3.639,13.744-10.816,17.237h0A29.179,29.179,0,0,1,964.038-7a15.487,15.487,0,0,1-9.848-3.291,11.132,11.132,0,0,1-4.277-9.193c0-5.059,2.08-8.8,6.181-11.124,2.366-1.351,5.772-2.309,10.41-2.924l7.463-.959a48.8,48.8,0,0,0,6.832-1.34,20.183,20.183,0,0,0,5.534-2.27ZM964.038-9a27.2,27.2,0,0,0,12.135-2.9l.006,0a17.248,17.248,0,0,0,7.281-6.212,17.085,17.085,0,0,0,2.41-9.227v-8.212a25.367,25.367,0,0,1-4.551,1.658,50.783,50.783,0,0,1-7.113,1.394l-7.443.956c-4.312.572-7.57,1.474-9.68,2.679-3.48,1.971-5.17,5.04-5.17,9.386a9.105,9.105,0,0,0,3.516,7.623,13,13,0,0,0,3.952,2.144A14.7,14.7,0,0,0,964.038-9Z" transform="translate(1433.505 101.762)" fill="#fff" opacity="0.12"/></svg>