<svg xmlns="http://www.w3.org/2000/svg" width="952.18" height="102.8" viewBox="0 0 952.18 102.8"><path d="M444.22,2.4A39.117,39.117,0,0,1,429.907-.067a28.812,28.812,0,0,1-10.856-7.449,32.314,32.314,0,0,1-6.774-11.825A49.936,49.936,0,0,1,410.04-34.86,49.91,49.91,0,0,1,412.3-50.415a32.9,32.9,0,0,1,6.824-11.927A29.2,29.2,0,0,1,429.952-69.9a37.808,37.808,0,0,1,14.128-2.5,34.264,34.264,0,0,1,13.356,2.476,27.109,27.109,0,0,1,10.154,7.465A32.865,32.865,0,0,1,473.929-50.6,53.664,53.664,0,0,1,476.02-35v6.32h-49.7a28.724,28.724,0,0,0,1.863,6.976,17.561,17.561,0,0,0,3.788,5.732,15.046,15.046,0,0,0,5.533,3.446,21.971,21.971,0,0,0,7.415,1.166,24.257,24.257,0,0,0,10.693-2.314,24.069,24.069,0,0,0,8.4-6.962l.683-.873,9.079,8.748-.423.686a28.606,28.606,0,0,1-12.03,10.663A38.461,38.461,0,0,1,444.22,2.4Zm-.14-72.8A35.828,35.828,0,0,0,430.7-68.04,27.221,27.221,0,0,0,420.6-61a30.908,30.908,0,0,0-6.406,11.208,47.927,47.927,0,0,0-2.155,14.93,47.953,47.953,0,0,0,2.138,14.9,30.329,30.329,0,0,0,6.351,11.1,26.832,26.832,0,0,0,10.109,6.936A37.14,37.14,0,0,0,444.22.4a36.478,36.478,0,0,0,16.219-3.608A28.986,28.986,0,0,0,466.9-7.486a25.227,25.227,0,0,0,4.314-4.962l-6.326-6.1a25.674,25.674,0,0,1-8.4,6.669A26.237,26.237,0,0,1,444.92-9.36a23.954,23.954,0,0,1-8.09-1.284,17.033,17.033,0,0,1-6.262-3.9,19.548,19.548,0,0,1-4.227-6.378,31.839,31.839,0,0,1-2.154-8.637l-.131-1.117H474.02V-35a51.685,51.685,0,0,0-2-15.02,30.878,30.878,0,0,0-5.947-11.14,25.127,25.127,0,0,0-9.41-6.92A32.285,32.285,0,0,0,444.08-70.4ZM377.02,2.4A39.5,39.5,0,0,1,362.585-.084a29.031,29.031,0,0,1-10.943-7.5,32.573,32.573,0,0,1-6.826-11.876A49.744,49.744,0,0,1,342.56-35a50.158,50.158,0,0,1,2.255-15.625,32.213,32.213,0,0,1,6.829-11.862,29.039,29.039,0,0,1,10.943-7.447A39.748,39.748,0,0,1,377.02-72.4,36.244,36.244,0,0,1,393.5-68.793a27.112,27.112,0,0,1,11.258,10.461l.421.706-9.762,8.769-.629-1.018a20.055,20.055,0,0,0-7.337-7.073,19.992,19.992,0,0,0-9.872-2.533,19.433,19.433,0,0,0-8.057,1.591,16.086,16.086,0,0,0-6,4.75,21.959,21.959,0,0,0-3.812,7.7A38.518,38.518,0,0,0,358.42-35a38.033,38.033,0,0,0,1.292,10.349,22.346,22.346,0,0,0,3.815,7.725,16.115,16.115,0,0,0,6,4.8,19.251,19.251,0,0,0,8.054,1.607,19.992,19.992,0,0,0,9.872-2.533,20.055,20.055,0,0,0,7.337-7.073l.629-1.018,9.762,8.769-.421.706A27.111,27.111,0,0,1,393.5-1.207,36.244,36.244,0,0,1,377.02,2.4Zm0-72.8a37.771,37.771,0,0,0-13.707,2.329,27.057,27.057,0,0,0-10.2,6.938A30.228,30.228,0,0,0,346.715-50a48.178,48.178,0,0,0-2.155,15,47.76,47.76,0,0,0,2.155,14.912,30.587,30.587,0,0,0,6.4,11.154,27.049,27.049,0,0,0,10.2,6.988A37.518,37.518,0,0,0,377.02.4,34.273,34.273,0,0,0,392.6-2.993a25.825,25.825,0,0,0,5.948-4.11,25.107,25.107,0,0,0,4.064-4.892l-6.771-6.082a21.911,21.911,0,0,1-7.412,6.769A21.967,21.967,0,0,1,377.58-8.52c-6.64,0-11.9-2.413-15.627-7.173a24.329,24.329,0,0,1-4.165-8.41A40.016,40.016,0,0,1,356.42-35a40.5,40.5,0,0,1,1.368-10.983,23.939,23.939,0,0,1,4.168-8.4c3.729-4.711,8.986-7.1,15.624-7.1a21.967,21.967,0,0,1,10.848,2.787,21.911,21.911,0,0,1,7.412,6.769l6.771-6.082a25.107,25.107,0,0,0-4.064-4.892,25.825,25.825,0,0,0-5.948-4.11A34.273,34.273,0,0,0,377.02-70.4ZM264.04,2.4A41.079,41.079,0,0,1,249.3-.1a30.618,30.618,0,0,1-11.322-7.542,32.618,32.618,0,0,1-7.15-11.894A47.305,47.305,0,0,1,228.46-35a47.305,47.305,0,0,1,2.365-15.465,32.618,32.618,0,0,1,7.15-11.894A30.618,30.618,0,0,1,249.3-69.9a41.079,41.079,0,0,1,14.744-2.5,41.225,41.225,0,0,1,14.76,2.5,30.908,30.908,0,0,1,11.372,7.54,32.572,32.572,0,0,1,7.2,11.894A46.985,46.985,0,0,1,299.76-35a46.985,46.985,0,0,1-2.383,15.467,32.57,32.57,0,0,1-7.2,11.894A30.906,30.906,0,0,1,278.8-.1,41.225,41.225,0,0,1,264.04,2.4Zm0-72.8a39.1,39.1,0,0,0-14.027,2.366,28.631,28.631,0,0,0-10.588,7.053,30.629,30.629,0,0,0-6.71,11.171A45.322,45.322,0,0,0,230.46-35a45.322,45.322,0,0,0,2.255,14.81,30.629,30.629,0,0,0,6.71,11.171,28.631,28.631,0,0,0,10.588,7.053A39.1,39.1,0,0,0,264.04.4a39.241,39.241,0,0,0,14.045-2.366,28.923,28.923,0,0,0,10.642-7.055,30.586,30.586,0,0,0,6.761-11.171A45,45,0,0,0,297.76-35a45,45,0,0,0-2.272-14.808,30.587,30.587,0,0,0-6.761-11.171,28.924,28.924,0,0,0-10.643-7.055A39.241,39.241,0,0,0,264.04-70.4ZM26.18,2.4A39.117,39.117,0,0,1,11.867-.067,28.813,28.813,0,0,1,1.011-7.516,32.315,32.315,0,0,1-5.763-19.341,49.936,49.936,0,0,1-8-34.86,49.91,49.91,0,0,1-5.745-50.415,32.9,32.9,0,0,1,1.079-62.342,29.2,29.2,0,0,1,11.912-69.9,37.808,37.808,0,0,1,26.04-72.4,34.264,34.264,0,0,1,39.4-69.924,27.109,27.109,0,0,1,49.55-62.459,32.865,32.865,0,0,1,55.889-50.6,53.664,53.664,0,0,1,57.98-35v6.32H8.281A28.724,28.724,0,0,0,10.144-21.7a17.561,17.561,0,0,0,3.788,5.732,15.048,15.048,0,0,0,5.533,3.446A21.972,21.972,0,0,0,26.88-11.36a24.258,24.258,0,0,0,10.693-2.314,24.071,24.071,0,0,0,8.4-6.962l.683-.873,9.079,8.748-.423.686A28.606,28.606,0,0,1,43.281-1.412,38.461,38.461,0,0,1,26.18,2.4Zm-.14-72.8a35.828,35.828,0,0,0-13.382,2.36A27.22,27.22,0,0,0,2.561-61,30.908,30.908,0,0,0-3.845-49.79,47.927,47.927,0,0,0-6-34.86a47.953,47.953,0,0,0,2.138,14.9,30.329,30.329,0,0,0,6.351,11.1A26.831,26.831,0,0,0,12.6-1.928,37.14,37.14,0,0,0,26.18.4,36.478,36.478,0,0,0,42.4-3.208a28.986,28.986,0,0,0,6.463-4.278,25.227,25.227,0,0,0,4.314-4.962l-6.326-6.1a25.674,25.674,0,0,1-8.4,6.669A26.238,26.238,0,0,1,26.88-9.36a23.954,23.954,0,0,1-8.09-1.284,17.033,17.033,0,0,1-6.262-3.9A19.549,19.549,0,0,1,8.3-20.926a31.84,31.84,0,0,1-2.154-8.637L6.015-30.68H55.98V-35a51.685,51.685,0,0,0-2-15.02,30.878,30.878,0,0,0-5.947-11.14,25.127,25.127,0,0,0-9.41-6.92A32.285,32.285,0,0,0,26.04-70.4ZM-169.12,2.4A41.081,41.081,0,0,1-183.863-.1a30.618,30.618,0,0,1-11.322-7.542,32.618,32.618,0,0,1-7.15-11.894A47.306,47.306,0,0,1-204.7-35a47.306,47.306,0,0,1,2.365-15.465,32.618,32.618,0,0,1,7.15-11.894A30.618,30.618,0,0,1-183.863-69.9a41.081,41.081,0,0,1,14.743-2.5,41.226,41.226,0,0,1,14.76,2.5,30.908,30.908,0,0,1,11.372,7.54,32.571,32.571,0,0,1,7.2,11.894A46.984,46.984,0,0,1-133.4-35a46.984,46.984,0,0,1-2.383,15.467,32.571,32.571,0,0,1-7.2,11.894A30.908,30.908,0,0,1-154.36-.1,41.226,41.226,0,0,1-169.12,2.4Zm0-72.8a39.1,39.1,0,0,0-14.026,2.366,28.631,28.631,0,0,0-10.588,7.053,30.629,30.629,0,0,0-6.71,11.171A45.322,45.322,0,0,0-202.7-35a45.322,45.322,0,0,0,2.255,14.81,30.629,30.629,0,0,0,6.71,11.171,28.631,28.631,0,0,0,10.588,7.053A39.1,39.1,0,0,0-169.12.4a39.241,39.241,0,0,0,14.045-2.366,28.925,28.925,0,0,0,10.643-7.055,30.587,30.587,0,0,0,6.761-11.171A45,45,0,0,0-135.4-35a45,45,0,0,0-2.272-14.808,30.587,30.587,0,0,0-6.761-11.171,28.925,28.925,0,0,0-10.643-7.055A39.241,39.241,0,0,0-169.12-70.4ZM-224.14,2.4A25.1,25.1,0,0,1-233.234.845,18.631,18.631,0,0,1-240.2-3.869a20.371,20.371,0,0,1-4.363-7.45A30.45,30.45,0,0,1-246-21V-58.36h-12.6V-71H-246V-89.228l14.156-4.172h1.7V-71h20.02v12.64h-20.02v35.68c0,4.308.839,7.482,2.493,9.433a7.453,7.453,0,0,0,3.045,2.129,12.586,12.586,0,0,0,4.522.738,26.535,26.535,0,0,0,9.579-1.613l1.245-.482,1.01,11.954-.617.3a24.479,24.479,0,0,1-6.57,1.977A52.71,52.71,0,0,1-224.14,2.4ZM-256.6-60.36H-244V-21a28.469,28.469,0,0,0,1.33,9.044,18.384,18.384,0,0,0,3.932,6.725,16.648,16.648,0,0,0,6.227,4.211A23.119,23.119,0,0,0-224.14.4c5.877,0,10.509-.718,13.784-2.136l-.672-7.95A29.58,29.58,0,0,1-220.08-8.38c-4.023,0-7.083-1.2-9.093-3.573a11.588,11.588,0,0,1-2.25-4.515,24.022,24.022,0,0,1-.717-6.211V-60.36h20.02V-69h-20.02V-91.228l-11.86,3.5V-69h-12.6ZM-289.94,2.4a33.3,33.3,0,0,1-15.295-3.469,20.658,20.658,0,0,1-9.688-9.422l-.367-.773,10.369-7.077.558.854a15.779,15.779,0,0,0,6.062,5.4A18.01,18.01,0,0,0-289.94-10.1a14.449,14.449,0,0,0,4.665-.716,11.179,11.179,0,0,0,3.712-2.121,8.867,8.867,0,0,0,3.223-7.083A6.9,6.9,0,0,0-280.8-25.5c-1.766-1.545-5.147-3.249-10.049-5.065l-.007,0A83.238,83.238,0,0,1-301.36-35.3a32.767,32.767,0,0,1-6.987-4.936A17.057,17.057,0,0,1-313.62-52.92a17.043,17.043,0,0,1,7.046-14.237,24.307,24.307,0,0,1,8.083-3.945,37.537,37.537,0,0,1,10.231-1.3,29.824,29.824,0,0,1,13.467,3.046,23.754,23.754,0,0,1,9.638,8.62l.494.782-9.823,7.326-.592-.836a14.736,14.736,0,0,0-5.574-4.79,16.819,16.819,0,0,0-7.47-1.648,12.383,12.383,0,0,0-7.2,1.92,5.4,5.4,0,0,0-2.582,4.64,6,6,0,0,0,2.68,5.01c1.972,1.479,5.943,3.389,11.8,5.679a71.993,71.993,0,0,1,9.671,4.491,29.258,29.258,0,0,1,6.433,4.774A17.7,17.7,0,0,1-262.48-20.58a22.438,22.438,0,0,1-1.91,9.375,20.665,20.665,0,0,1-5.732,7.356A25.785,25.785,0,0,1-278.9.849,36.957,36.957,0,0,1-289.94,2.4Zm-22.79-12.989A16.581,16.581,0,0,0-309.684-6.6a22.1,22.1,0,0,0,5.359,3.747A31.319,31.319,0,0,0-289.94.4a34.971,34.971,0,0,0,10.446-1.459,23.8,23.8,0,0,0,8.1-4.331,18.685,18.685,0,0,0,5.187-6.644,20.457,20.457,0,0,0,1.73-8.545,18.123,18.123,0,0,0-1.074-6.386,14.516,14.516,0,0,0-3.194-5.028c-2.918-3.008-8.1-5.967-15.394-8.794-6.117-2.389-10.132-4.333-12.279-5.942a7.981,7.981,0,0,1-3.48-6.61,7.368,7.368,0,0,1,3.438-6.28,14.318,14.318,0,0,1,8.342-2.28,18.8,18.8,0,0,1,8.35,1.852,16.586,16.586,0,0,1,5.711,4.611l6.7-5a21.866,21.866,0,0,0-8.332-7.129A27.843,27.843,0,0,0-288.26-70.4a35.552,35.552,0,0,0-9.684,1.222,22.321,22.321,0,0,0-7.422,3.615,15.713,15.713,0,0,0-4.7,5.527,15.9,15.9,0,0,0-1.559,7.116,16.033,16.033,0,0,0,1.166,6.179,15.211,15.211,0,0,0,3.5,5.074c3.2,3.108,8.851,6.213,16.8,9.229h0c5.2,1.927,8.694,3.705,10.671,5.435a8.909,8.909,0,0,1,3.142,6.983,10.9,10.9,0,0,1-3.917,8.6A14.359,14.359,0,0,1-289.94-8.1a19.99,19.99,0,0,1-9.279-2.212,17.872,17.872,0,0,1-6.235-5.244ZM-363.72,2.4A27.561,27.561,0,0,1-374.7.34a20.588,20.588,0,0,1-8.071-6.231,27.893,27.893,0,0,1-4.853-10.143A53.889,53.889,0,0,1-389.22-29.82V-71h15.86v41.32c0,6.476,1.115,11.32,3.314,14.4a10.065,10.065,0,0,0,4.014,3.348A13.85,13.85,0,0,0-360.22-10.8a17.521,17.521,0,0,0,7.27-1.486,17.457,17.457,0,0,0,5.908-4.474,20.384,20.384,0,0,0,3.954-6.808,25.925,25.925,0,0,0,1.327-8.493V-71h15.86v55.18A104.48,104.48,0,0,0-324.651-.151L-324.476,1h-15.015l-.152-.817A77.206,77.206,0,0,1-340.8-9.395a22.81,22.81,0,0,1-8.209,7.949A28.827,28.827,0,0,1-363.72,2.4ZM-387.22-69v39.18A51.907,51.907,0,0,0-385.7-16.551,25.916,25.916,0,0,0-381.2-7.129,18.61,18.61,0,0,0-373.91-1.5,25.589,25.589,0,0,0-363.72.4a28.608,28.608,0,0,0,7.22-.9,25.881,25.881,0,0,0,6.487-2.679,21.833,21.833,0,0,0,5.239-4.2,20.133,20.133,0,0,0,3.517-5.486l.261-.6h2.054l.021.978A76.97,76.97,0,0,0-337.824-1H-326.8a105.436,105.436,0,0,1-1.1-14.82V-69h-11.86v36.94a27.913,27.913,0,0,1-1.438,9.147,22.371,22.371,0,0,1-4.341,7.472A18.783,18.783,0,0,1-360.22-8.8c-5.079,0-8.933-1.79-11.454-5.319a18.426,18.426,0,0,1-2.785-6.549,40.117,40.117,0,0,1-.9-9.012V-69ZM-431.9,2.4A48.41,48.41,0,0,1-444.462.826a39.423,39.423,0,0,1-10.863-4.741,39.614,39.614,0,0,1-8.851-7.648,45.084,45.084,0,0,1-6.57-10.272,54.844,54.844,0,0,1-4.065-12.585A75.05,75.05,0,0,1-476.16-49a75.05,75.05,0,0,1,1.349-14.58,54.844,54.844,0,0,1,4.065-12.585,44.415,44.415,0,0,1,6.608-10.276,39.638,39.638,0,0,1,8.958-7.648,40.3,40.3,0,0,1,11-4.738,49.5,49.5,0,0,1,12.7-1.574,48.749,48.749,0,0,1,10.4,1.073,39.558,39.558,0,0,1,9.228,3.232,30.8,30.8,0,0,1,7.523,5.211,26.491,26.491,0,0,1,5.237,6.983l.349.673-10.1,9.453-.65-1a23.8,23.8,0,0,0-9.035-8.371A27.407,27.407,0,0,0-431.2-85.94a27.547,27.547,0,0,0-11.722,2.374,22.825,22.825,0,0,0-8.619,7.1,33.373,33.373,0,0,0-5.4,11.607A62.605,62.605,0,0,0-458.76-49a63.237,63.237,0,0,0,1.788,15.778,34.064,34.064,0,0,0,5.3,11.631,22.609,22.609,0,0,0,8.413,7.145A25.935,25.935,0,0,0-431.9-12.06a29.879,29.879,0,0,0,13.413-2.764,22.208,22.208,0,0,0,8.977-8.382l.642-1.038,10.133,9.479-.364.678a27.6,27.6,0,0,1-5.32,6.972,31.372,31.372,0,0,1-7.5,5.208,38.7,38.7,0,0,1-9.287,3.235A51.045,51.045,0,0,1-431.9,2.4Zm.42-100.8a47.5,47.5,0,0,0-12.186,1.506,38.294,38.294,0,0,0-10.455,4.5,37.645,37.645,0,0,0-8.507,7.262,42.42,42.42,0,0,0-6.307,9.814,52.851,52.851,0,0,0-3.914,12.125A73.052,73.052,0,0,0-474.16-49a73.052,73.052,0,0,0,1.311,14.19,52.851,52.851,0,0,0,3.914,12.125,43.089,43.089,0,0,0,6.275,9.818,37.613,37.613,0,0,0,8.4,7.262,37.421,37.421,0,0,0,10.312,4.5A46.415,46.415,0,0,0-431.9.4,49.044,49.044,0,0,0-421.628-.628a36.7,36.7,0,0,0,8.808-3.065A29.374,29.374,0,0,0-405.8-8.565a25.569,25.569,0,0,0,4.563-5.8l-7.238-6.771a23.9,23.9,0,0,1-9.121,8.1A31.84,31.84,0,0,1-431.9-10.06a27.908,27.908,0,0,1-12.23-2.584,24.584,24.584,0,0,1-9.157-7.765,36.047,36.047,0,0,1-5.621-12.309A65.218,65.218,0,0,1-460.76-49a64.584,64.584,0,0,1,1.888-16.373,35.352,35.352,0,0,1,5.732-12.3,24.8,24.8,0,0,1,9.371-7.708A29.523,29.523,0,0,1-431.2-87.94a29.378,29.378,0,0,1,13.583,3.016,25.451,25.451,0,0,1,9.128,8.075l7.264-6.8a24.485,24.485,0,0,0-4.485-5.792,28.8,28.8,0,0,0-7.037-4.869,37.564,37.564,0,0,0-8.762-3.068A46.755,46.755,0,0,0-431.48-98.4ZM329.3,1H313.44V-71H329.3ZM315.44-1H327.3V-69H315.44ZM197.693,1H181.847l-.232-.674L147.418-99h18.373l24.046,75.535L213.748-99h18.374Zm-14.42-2h12.993l33.051-96H215.212l-25.37,80.145L164.329-97H150.222ZM85.42,1H69.56V-52.92c0-7.869-.14-13.589-.417-17L69.056-71H84.065l.09.9c.314,3.141.5,6.584.55,10.262a23.535,23.535,0,0,1,7.777-8.409,26.685,26.685,0,0,1,14.9-4.154,19.163,19.163,0,0,1,4.285.446l.775.179v13.321l-1.275-.364a18.5,18.5,0,0,0-4.065-.242,18.845,18.845,0,0,0-5.634.847,19.819,19.819,0,0,0-5.214,2.55,23.717,23.717,0,0,0-7.926,9.276A28.9,28.9,0,0,0,85.42-33.46ZM71.56-1H83.42V-33.46a30.883,30.883,0,0,1,3.114-13.813,25.692,25.692,0,0,1,8.594-10.044A20.956,20.956,0,0,1,107.1-61.06c1.6,0,2.638.047,3.34.111V-70.16a18.327,18.327,0,0,0-3.06-.24,27.843,27.843,0,0,0-7.45.961,22.63,22.63,0,0,0-6.352,2.866,21.507,21.507,0,0,0-5.034,4.565,23.451,23.451,0,0,0-3.473,6.093l-.249.635h-2.1v-2.4c0-4.069-.158-7.872-.469-11.32H71.215c.229,3.531.345,8.931.345,16.08ZM-19.16,1H-35.02V-42c0-5.532-1.177-9.847-3.5-12.825A10.838,10.838,0,0,0-42.638-58.1,13.731,13.731,0,0,0-48.3-59.2a14.452,14.452,0,0,0-5.944,1.19,13.532,13.532,0,0,0-4.709,3.573,16.285,16.285,0,0,0-3.116,5.525A22.32,22.32,0,0,0-63.12-41.86V1H-78.84V-41.44c0-6.007-1.089-10.543-3.237-13.48a9.843,9.843,0,0,0-3.9-3.2A13.431,13.431,0,0,0-91.56-59.2a13.344,13.344,0,0,0-7.628,2.347,17.279,17.279,0,0,0-5.623,6.492,19.253,19.253,0,0,0-2.129,8.921V1h-15.72V-52.08c0-7.029-.234-13.026-.7-17.824l-.105-1.1h14.318l.1.892c.287,2.651.465,5.716.534,9.143a22.6,22.6,0,0,1,7.533-7.574A26.1,26.1,0,0,1-86.94-72.4a23.4,23.4,0,0,1,13.3,3.74,18.069,18.069,0,0,1,6.775,8.325,23.687,23.687,0,0,1,8.176-8.278A26.206,26.206,0,0,1-44.8-72.4a28.006,28.006,0,0,1,10.724,1.948,21.714,21.714,0,0,1,8.16,5.886A25.825,25.825,0,0,1-20.834-55.3,40.2,40.2,0,0,1-19.16-43.26ZM-33.02-1h11.86V-43.26A38.217,38.217,0,0,0-22.741-54.7a23.842,23.842,0,0,0-4.684-8.552A19.731,19.731,0,0,0-34.839-68.6,26.026,26.026,0,0,0-44.8-70.4a25.864,25.864,0,0,0-6.79.875,23.372,23.372,0,0,0-6.058,2.618,22.183,22.183,0,0,0-4.974,4.119A22.063,22.063,0,0,0-66.154-57.4l-1.137,2.437-.731-2.588a17.447,17.447,0,0,0-2.547-5.414A16.191,16.191,0,0,0-74.757-67a19.286,19.286,0,0,0-5.558-2.545A24.591,24.591,0,0,0-86.94-70.4a26.046,26.046,0,0,0-6.893.892,23.025,23.025,0,0,0-6.088,2.667,21.294,21.294,0,0,0-4.9,4.161,20.426,20.426,0,0,0-3.319,5.389l-.258.611h-2.083v-1c0-4.3-.156-8.1-.463-11.32h-10.321c.4,4.666.6,10.351.6,16.92V-1h11.72V-41.44a21.233,21.233,0,0,1,2.351-9.839,19.254,19.254,0,0,1,6.277-7.229A15.309,15.309,0,0,1-91.56-61.2c4.889,0,8.622,1.716,11.1,5.1a17.477,17.477,0,0,1,2.737,6.216,36.059,36.059,0,0,1,.886,8.444V-1h11.72V-41.86c0-5.635,1.566-10.306,4.653-13.883A15.392,15.392,0,0,1-48.3-61.2c4.876,0,8.7,1.731,11.359,5.145a17.32,17.32,0,0,1,2.958,6.089A30.139,30.139,0,0,1-33.02-42ZM264.04-8.1c-6.825,0-12.223-2.46-16.046-7.311a24.786,24.786,0,0,1-4.27-8.55A40.11,40.11,0,0,1,242.32-35a40.11,40.11,0,0,1,1.4-11.039,24.786,24.786,0,0,1,4.27-8.55c3.822-4.851,9.221-7.311,16.046-7.311,6.727,0,12.123,2.457,16.038,7.3a24.556,24.556,0,0,1,4.381,8.553A39.192,39.192,0,0,1,285.9-35a39.192,39.192,0,0,1-1.441,11.046,24.556,24.556,0,0,1-4.381,8.553C276.163-10.557,270.767-8.1,264.04-8.1Zm0-51.8a19.973,19.973,0,0,0-8.3,1.643,16.532,16.532,0,0,0-6.173,4.906,22.8,22.8,0,0,0-3.92,7.865A38.126,38.126,0,0,0,244.32-35a38.126,38.126,0,0,0,1.326,10.486,22.8,22.8,0,0,0,3.92,7.865,16.532,16.532,0,0,0,6.173,4.906,19.973,19.973,0,0,0,8.3,1.643,19.792,19.792,0,0,0,8.231-1.643,17.124,17.124,0,0,0,6.251-4.915,22.574,22.574,0,0,0,4.019-7.862A37.21,37.21,0,0,0,283.9-35a37.21,37.21,0,0,0-1.359-10.479,22.574,22.574,0,0,0-4.019-7.862,17.124,17.124,0,0,0-6.251-4.915A19.792,19.792,0,0,0,264.04-59.9ZM-169.12-8.1c-6.825,0-12.223-2.46-16.046-7.311a24.786,24.786,0,0,1-4.27-8.55A40.11,40.11,0,0,1-190.84-35a40.11,40.11,0,0,1,1.4-11.039,24.786,24.786,0,0,1,4.27-8.55c3.822-4.851,9.221-7.311,16.046-7.311,6.727,0,12.123,2.457,16.038,7.3a24.559,24.559,0,0,1,4.381,8.553A39.192,39.192,0,0,1-147.26-35,39.192,39.192,0,0,1-148.7-23.954a24.559,24.559,0,0,1-4.381,8.553C-157-10.557-162.393-8.1-169.12-8.1Zm0-51.8a19.973,19.973,0,0,0-8.3,1.643,16.532,16.532,0,0,0-6.173,4.906,22.8,22.8,0,0,0-3.92,7.865A38.126,38.126,0,0,0-188.84-35a38.126,38.126,0,0,0,1.326,10.486,22.8,22.8,0,0,0,3.92,7.865,16.532,16.532,0,0,0,6.173,4.906,19.973,19.973,0,0,0,8.3,1.643,19.793,19.793,0,0,0,8.232-1.643,17.123,17.123,0,0,0,6.251-4.915,22.576,22.576,0,0,0,4.019-7.862A37.21,37.21,0,0,0-149.26-35a37.21,37.21,0,0,0-1.359-10.479,22.576,22.576,0,0,0-4.019-7.862,17.123,17.123,0,0,0-6.251-4.915A19.793,19.793,0,0,0-169.12-59.9ZM462.86-38.62H423.935l.11-1.1a35.137,35.137,0,0,1,1.985-8.935,21.486,21.486,0,0,1,4-6.752c3.356-3.751,7.893-5.653,13.485-5.653,5.952,0,10.719,1.848,14.166,5.493a17.813,17.813,0,0,1,3.894,6.523A26.058,26.058,0,0,1,462.86-40.6Zm-36.7-2h34.7a24.062,24.062,0,0,0-1.171-7.775,15.828,15.828,0,0,0-3.456-5.8,14.714,14.714,0,0,0-5.443-3.639,20.2,20.2,0,0,0-7.27-1.228,17.559,17.559,0,0,0-6.79,1.253,14.4,14.4,0,0,0-5.205,3.734,19.5,19.5,0,0,0-3.625,6.128A31.993,31.993,0,0,0,426.159-40.62Zm-381.339,2H5.9L6-39.72A35.138,35.138,0,0,1,7.99-48.655a21.486,21.486,0,0,1,4-6.752c3.356-3.751,7.893-5.653,13.485-5.653,5.952,0,10.719,1.848,14.166,5.493a17.813,17.813,0,0,1,3.894,6.523A26.058,26.058,0,0,1,44.82-40.6Zm-36.7-2h34.7A24.061,24.061,0,0,0,41.649-48.4a15.828,15.828,0,0,0-3.456-5.8,14.714,14.714,0,0,0-5.443-3.639,20.2,20.2,0,0,0-7.27-1.228,17.559,17.559,0,0,0-6.79,1.253,14.4,14.4,0,0,0-5.205,3.734A19.5,19.5,0,0,0,9.86-47.945,31.994,31.994,0,0,0,8.119-40.62ZM321.3-79.78a10.588,10.588,0,0,1-7.547-2.653A9.432,9.432,0,0,1,310.92-89.6a9.432,9.432,0,0,1,2.833-7.167A10.588,10.588,0,0,1,321.3-99.42a10.848,10.848,0,0,1,7.607,2.644A9.313,9.313,0,0,1,331.82-89.6a9.313,9.313,0,0,1-2.913,7.176A10.848,10.848,0,0,1,321.3-79.78Zm0-17.64a8.557,8.557,0,0,0-6.173,2.107A7.417,7.417,0,0,0,312.92-89.6a7.417,7.417,0,0,0,2.207,5.713A8.557,8.557,0,0,0,321.3-81.78a8.808,8.808,0,0,0,6.253-2.116,7.3,7.3,0,0,0,2.267-5.7,7.3,7.3,0,0,0-2.267-5.7A8.808,8.808,0,0,0,321.3-97.42Z" transform="translate(476.16 100.4)" fill="#fff" opacity="0.1"/></svg>