<svg xmlns="http://www.w3.org/2000/svg" width="828.04" height="181.48" viewBox="0 0 828.04 181.48"><path d="M-199.1-178.58h31.48v69.938a31.248,31.248,0,0,1,5.715-5.915,33.953,33.953,0,0,1,7.932-4.644,45.056,45.056,0,0,1,9.693-2.777,66.849,66.849,0,0,1,11.441-.922,57.462,57.462,0,0,1,10.993,1.014,45.5,45.5,0,0,1,9.76,3.049,41.418,41.418,0,0,1,8.51,5.086,44.549,44.549,0,0,1,7.244,7.115,50.892,50.892,0,0,1,5.78,8.892A60.2,60.2,0,0,1-86.43-87.321a90.354,90.354,0,0,1,3.29,25.4,97.98,97.98,0,0,1-3.409,26.928A65.15,65.15,0,0,1-90.82-23.919a54.7,54.7,0,0,1-5.988,9.469,47.321,47.321,0,0,1-7.482,7.588,42.616,42.616,0,0,1-8.75,5.426,45.483,45.483,0,0,1-10,3.254A56.406,56.406,0,0,1-134.28,2.9a43.451,43.451,0,0,1-10.471-1.275A45.933,45.933,0,0,1-154.79-2.2a45.062,45.062,0,0,1-8.767-5.886,38.4,38.4,0,0,1-6.223-6.851c-.006,7.169-.087,12.2-.24,14.961l-.026.472h-29.827l.057-.551c.476-4.6.717-15.323.717-31.869Zm30.48,1H-198.1V-31.92c0,15.953-.225,26.515-.669,31.42h27.775c.143-2.952.215-8.107.215-15.34v-.5h1.245l.149.22A37.308,37.308,0,0,0-162.9-8.838a44.068,44.068,0,0,0,8.573,5.754,44.941,44.941,0,0,0,9.82,3.739A42.454,42.454,0,0,0-134.28,1.9,55.4,55.4,0,0,0-123.242.838a44.476,44.476,0,0,0,9.782-3.181,41.612,41.612,0,0,0,8.545-5.3,46.313,46.313,0,0,0,7.323-7.427,53.687,53.687,0,0,0,5.877-9.3,64.141,64.141,0,0,0,4.2-10.9A96.985,96.985,0,0,0-84.14-61.92a89.36,89.36,0,0,0-3.25-25.119,59.184,59.184,0,0,0-4.053-10.248A49.88,49.88,0,0,0-97.108-106a43.545,43.545,0,0,0-7.081-6.955,40.418,40.418,0,0,0-8.3-4.964,44.5,44.5,0,0,0-9.545-2.981,56.472,56.472,0,0,0-10.8-1c-8.055,0-15.035,1.218-20.746,3.621a32.955,32.955,0,0,0-7.7,4.506,30.3,30.3,0,0,0-5.947,6.3l-.149.212h-1.239Zm373.68-1h31.72v98.907L278.315-120.5h39.111L272.44-76.487,321.673.5H285.925l-.147-.232L250.59-55.13,236.78-41.55V.5H205.06Zm30.72,1H206.06V-.5h29.72V-41.97l.149-.147L250.77-56.71,286.475-.5h33.372L271.16-76.633l.291-.284L314.974-119.5H278.725L235.78-77.287ZM-409.1-168.5h112.6v28.6h-77.04v37.4h68.64v28.6h-68.64v45.8h77.04V.5H-409.1Zm111.6,1H-408.1V-.5h110.6V-27.1h-77.04V-74.9h68.64v-26.6h-68.64v-39.4h77.04Zm287.3,44.6a87.89,87.89,0,0,1,13.811,1.041,66.668,66.668,0,0,1,12.25,3.129,55.3,55.3,0,0,1,10.679,5.222,52.3,52.3,0,0,1,9.095,7.315A52.513,52.513,0,0,1,42.9-97.03a56.052,56.052,0,0,1,5.184,10.761,68.013,68.013,0,0,1,3.106,12.346A89.944,89.944,0,0,1,52.22-60a89.944,89.944,0,0,1-1.034,13.923,68.013,68.013,0,0,1-3.106,12.346A56.052,56.052,0,0,1,42.9-22.97a52.514,52.514,0,0,1-7.262,9.162A52.3,52.3,0,0,1,26.54-6.493,55.3,55.3,0,0,1,15.861-1.27,66.668,66.668,0,0,1,3.611,1.859,87.89,87.89,0,0,1-10.2,2.9,87.732,87.732,0,0,1-24,1.859,66.315,66.315,0,0,1-36.231-1.27,54.827,54.827,0,0,1-46.874-6.493a51.755,51.755,0,0,1-9.043-7.316,52.455,52.455,0,0,1-7.209-9.163,56.226,56.226,0,0,1-5.146-10.761,68.414,68.414,0,0,1-3.083-12.345A90.583,90.583,0,0,1-72.38-60a90.583,90.583,0,0,1,1.026-13.922,68.414,68.414,0,0,1,3.083-12.345,56.226,56.226,0,0,1,5.146-10.761,52.455,52.455,0,0,1,7.209-9.163,51.755,51.755,0,0,1,9.043-7.316,54.828,54.828,0,0,1,10.642-5.223A66.316,66.316,0,0,1-24-121.859,87.734,87.734,0,0,1-10.2-122.9Zm0,124.8A86.877,86.877,0,0,0,3.454.871,65.653,65.653,0,0,0,15.519-2.21,54.3,54.3,0,0,0,26-7.337a51.3,51.3,0,0,0,8.92-7.175A51.513,51.513,0,0,0,42.048-23.5a55.049,55.049,0,0,0,5.091-10.569A67.006,67.006,0,0,0,50.2-46.233,88.932,88.932,0,0,0,51.22-60,88.932,88.932,0,0,0,50.2-73.767a67.006,67.006,0,0,0-3.059-12.164A55.049,55.049,0,0,0,42.048-96.5a51.513,51.513,0,0,0-7.123-8.988A51.3,51.3,0,0,0,26-112.663a54.3,54.3,0,0,0-10.486-5.128,65.652,65.652,0,0,0-12.065-3.081A86.877,86.877,0,0,0-10.2-121.9a86.747,86.747,0,0,0-13.646,1.029,65.318,65.318,0,0,0-12.043,3.081,53.822,53.822,0,0,0-10.448,5.127,50.747,50.747,0,0,0-8.867,7.174A51.452,51.452,0,0,0-62.275-96.5a55.233,55.233,0,0,0-5.054,10.569,67.414,67.414,0,0,0-3.037,12.165A89.574,89.574,0,0,0-71.38-60a89.574,89.574,0,0,0,1.014,13.768,67.414,67.414,0,0,0,3.037,12.165A55.234,55.234,0,0,0-62.275-23.5,51.452,51.452,0,0,0-55.2-14.511a50.747,50.747,0,0,0,8.867,7.174A53.823,53.823,0,0,0-35.889-2.21,65.318,65.318,0,0,0-23.846.871,86.747,86.747,0,0,0-10.2,1.9ZM126.36-122.9a87.89,87.89,0,0,1,13.811,1.041,66.668,66.668,0,0,1,12.25,3.129,55.3,55.3,0,0,1,10.679,5.222,52.3,52.3,0,0,1,9.095,7.315,52.513,52.513,0,0,1,7.262,9.162,56.053,56.053,0,0,1,5.184,10.761,68.014,68.014,0,0,1,3.106,12.346A89.944,89.944,0,0,1,188.78-60a89.944,89.944,0,0,1-1.034,13.923,68.014,68.014,0,0,1-3.106,12.346,56.053,56.053,0,0,1-5.184,10.761,52.513,52.513,0,0,1-7.262,9.162A52.3,52.3,0,0,1,163.1-6.493,55.3,55.3,0,0,1,152.421-1.27a66.668,66.668,0,0,1-12.25,3.129A87.89,87.89,0,0,1,126.36,2.9a87.732,87.732,0,0,1-13.8-1.041A66.315,66.315,0,0,1,100.329-1.27,54.827,54.827,0,0,1,89.686-6.493a51.755,51.755,0,0,1-9.043-7.316,52.455,52.455,0,0,1-7.209-9.163,56.226,56.226,0,0,1-5.146-10.761,68.414,68.414,0,0,1-3.083-12.345A90.584,90.584,0,0,1,64.18-60a90.584,90.584,0,0,1,1.026-13.922,68.414,68.414,0,0,1,3.083-12.345,56.226,56.226,0,0,1,5.146-10.761,52.454,52.454,0,0,1,7.209-9.163,51.755,51.755,0,0,1,9.043-7.316,54.828,54.828,0,0,1,10.642-5.223,66.316,66.316,0,0,1,12.227-3.129A87.734,87.734,0,0,1,126.36-122.9Zm0,124.8A86.877,86.877,0,0,0,140.014.871,65.653,65.653,0,0,0,152.079-2.21a54.3,54.3,0,0,0,10.486-5.128,51.3,51.3,0,0,0,8.92-7.175,51.513,51.513,0,0,0,7.123-8.988A55.049,55.049,0,0,0,183.7-34.069a67.005,67.005,0,0,0,3.059-12.164A88.934,88.934,0,0,0,187.78-60a88.934,88.934,0,0,0-1.021-13.767A67.006,67.006,0,0,0,183.7-85.931,55.049,55.049,0,0,0,178.608-96.5a51.513,51.513,0,0,0-7.123-8.988,51.3,51.3,0,0,0-8.92-7.175,54.3,54.3,0,0,0-10.486-5.128,65.652,65.652,0,0,0-12.065-3.081A86.877,86.877,0,0,0,126.36-121.9a86.747,86.747,0,0,0-13.646,1.029,65.318,65.318,0,0,0-12.043,3.081,53.822,53.822,0,0,0-10.448,5.127,50.747,50.747,0,0,0-8.867,7.174A51.452,51.452,0,0,0,74.285-96.5a55.232,55.232,0,0,0-5.054,10.569,67.412,67.412,0,0,0-3.037,12.165A89.573,89.573,0,0,0,65.18-60a89.573,89.573,0,0,0,1.014,13.768,67.412,67.412,0,0,0,3.037,12.165A55.233,55.233,0,0,0,74.285-23.5a51.452,51.452,0,0,0,7.071,8.987,50.747,50.747,0,0,0,8.867,7.174A53.823,53.823,0,0,0,100.671-2.21,65.318,65.318,0,0,0,112.714.871,86.747,86.747,0,0,0,126.36,1.9ZM372.6-122.9a62.043,62.043,0,0,1,12.884,1.3,51.945,51.945,0,0,1,11.571,3.908,46.332,46.332,0,0,1,9.887,6.339,44.843,44.843,0,0,1,7.828,8.586l.279.4L396.514-88.593l-.3-.371a26.7,26.7,0,0,0-9.718-7.6A30.6,30.6,0,0,0,373.8-99.1c-4.681,0-8.345.822-10.892,2.442a7.961,7.961,0,0,0-2.8,2.906,8.3,8.3,0,0,0-.93,3.992,8.28,8.28,0,0,0,1.575,5.213c1.069,1.374,3.191,2.861,6.309,4.42,3.171,1.585,8.324,3.759,15.317,6.461,9.43,3.676,16.85,7.286,22.056,10.729,5.246,3.471,9.017,7.327,11.206,11.463a31.811,31.811,0,0,1,3.3,14.994,37.973,37.973,0,0,1-1.551,10.974,33.756,33.756,0,0,1-4.659,9.592,37.833,37.833,0,0,1-7.448,7.9,45.793,45.793,0,0,1-9.918,5.946,55.253,55.253,0,0,1-11.989,3.724A72.2,72.2,0,0,1,369.72,2.9a66.934,66.934,0,0,1-14.781-1.572A53.079,53.079,0,0,1,342.007-3.4a42.5,42.5,0,0,1-10.23-7.348,32.764,32.764,0,0,1-6.671-9.444l-.177-.381,19.709-13.721.288.4a31.68,31.68,0,0,0,10.87,9.451A28.305,28.305,0,0,0,369.24-20.9a24.483,24.483,0,0,0,7.291-1.027,17.9,17.9,0,0,0,5.838-3.064,13.862,13.862,0,0,0,3.825-4.544,12.074,12.074,0,0,0,1.266-5.5,9.933,9.933,0,0,0-.911-4.315,9.351,9.351,0,0,0-2.737-3.331c-2.509-1.96-7.957-4.56-16.192-7.727A150.139,150.139,0,0,1,348.957-58.9a57.952,57.952,0,0,1-12.226-8.659,29.522,29.522,0,0,1-6.773-9.826A30.816,30.816,0,0,1,327.7-89.28a30.02,30.02,0,0,1,3.084-13.665,31.008,31.008,0,0,1,9.236-10.734,43.113,43.113,0,0,1,14.295-6.922A67.561,67.561,0,0,1,372.6-122.9Zm41.07,20.31a43.782,43.782,0,0,0-7.372-8,45.337,45.337,0,0,0-9.673-6.2,50.955,50.955,0,0,0-11.349-3.832A61.052,61.052,0,0,0,372.6-121.9a66.573,66.573,0,0,0-18.014,2.261,42.122,42.122,0,0,0-13.965,6.758,30.017,30.017,0,0,0-8.944,10.386A29.029,29.029,0,0,0,328.7-89.28a29.825,29.825,0,0,0,2.182,11.508,28.532,28.532,0,0,0,6.547,9.494,56.976,56.976,0,0,0,12.014,8.5,149.176,149.176,0,0,0,18.537,8.431c8.327,3.2,13.861,5.852,16.448,7.873a10.2,10.2,0,0,1,4.032,8.434,13.38,13.38,0,0,1-5.469,10.831,18.9,18.9,0,0,1-6.162,3.236A25.474,25.474,0,0,1,369.24-19.9a29.294,29.294,0,0,1-13.916-3.659A32.706,32.706,0,0,1,344.4-32.911L326.193-20.231a31.826,31.826,0,0,0,6.289,8.777,41.506,41.506,0,0,0,9.99,7.172A52.076,52.076,0,0,0,355.161.352,65.942,65.942,0,0,0,369.72,1.9,71.2,71.2,0,0,0,383.185.679a54.266,54.266,0,0,0,11.771-3.656,44.8,44.8,0,0,0,9.7-5.814,36.833,36.833,0,0,0,7.252-7.7,32.756,32.756,0,0,0,4.521-9.308A36.976,36.976,0,0,0,417.94-36.48a30.832,30.832,0,0,0-3.182-14.526c-2.11-3.986-5.769-7.72-10.874-11.1-5.146-3.4-12.5-6.981-21.866-10.631-7.02-2.712-12.2-4.9-15.4-6.5-3.3-1.649-5.474-3.187-6.651-4.7a9.25,9.25,0,0,1-1.785-5.827,8.658,8.658,0,0,1,4.192-7.742c2.709-1.724,6.554-2.6,11.428-2.6a31.593,31.593,0,0,1,13.106,2.624,27.584,27.584,0,0,1,9.777,7.511Zm-553.95,2.49a25.123,25.123,0,0,1,11.446,2.514,22.475,22.475,0,0,1,8.407,7.544,36.373,36.373,0,0,1,5.114,12.167A71.926,71.926,0,0,1-113.62-61.44a79.7,79.7,0,0,1-1.692,17.3,39.838,39.838,0,0,1-5.107,12.851,22.975,22.975,0,0,1-8.4,8,23.949,23.949,0,0,1-11.457,2.67,34.16,34.16,0,0,1-11.6-1.86,25.153,25.153,0,0,1-9.028-5.6,24.342,24.342,0,0,1-5.788-8.667A30.143,30.143,0,0,1-168.62-47.76V-72.48A28.837,28.837,0,0,1-166.6-83.409a25.989,25.989,0,0,1,6.055-8.87,26.992,26.992,0,0,1,9.108-5.868A30.924,30.924,0,0,1-140.28-100.1Zm0,78.48A22.965,22.965,0,0,0-129.3-24.17a21.989,21.989,0,0,0,8.036-7.66,38.847,38.847,0,0,0,4.973-12.529,78.713,78.713,0,0,0,1.668-17.08,70.939,70.939,0,0,0-1.666-16.2,35.387,35.387,0,0,0-4.966-11.833,21.488,21.488,0,0,0-8.033-7.216A24.137,24.137,0,0,0-140.28-99.1a29.928,29.928,0,0,0-10.8,1.887,25.994,25.994,0,0,0-8.772,5.652,24.994,24.994,0,0,0-5.825,8.53A27.848,27.848,0,0,0-167.62-72.48v24.72a29.149,29.149,0,0,0,1.856,10.648,23.347,23.347,0,0,0,5.552,8.313,24.157,24.157,0,0,0,8.672,5.379A33.166,33.166,0,0,0-140.28-21.62ZM-10.2-100.1A31.7,31.7,0,0,1,3.088-97.415a27.648,27.648,0,0,1,10.143,8.063A36.587,36.587,0,0,1,19.62-76.639,60.2,60.2,0,0,1,21.74-60a60.2,60.2,0,0,1-2.12,16.639,36.587,36.587,0,0,1-6.389,12.712A27.648,27.648,0,0,1,3.088-22.585,31.7,31.7,0,0,1-10.2-19.9a31.488,31.488,0,0,1-13.259-2.686,27.209,27.209,0,0,1-10.054-8.066,36.79,36.79,0,0,1-6.3-12.711A61.017,61.017,0,0,1-41.9-60a61.017,61.017,0,0,1,2.089-16.637,36.789,36.789,0,0,1,6.3-12.711,27.209,27.209,0,0,1,10.054-8.066A31.488,31.488,0,0,1-10.2-100.1Zm0,79.2A30.7,30.7,0,0,0,2.672-23.495a26.658,26.658,0,0,0,9.777-7.777A35.593,35.593,0,0,0,18.66-43.639,59.207,59.207,0,0,0,20.74-60a59.207,59.207,0,0,0-2.08-16.361,35.593,35.593,0,0,0-6.211-12.368,26.658,26.658,0,0,0-9.777-7.777A30.7,30.7,0,0,0-10.2-99.1a30.5,30.5,0,0,0-12.841,2.594,26.218,26.218,0,0,0-9.686,7.774,35.794,35.794,0,0,0-6.123,12.369A60.02,60.02,0,0,0-40.9-60a60.02,60.02,0,0,0,2.051,16.363,35.794,35.794,0,0,0,6.123,12.369,26.218,26.218,0,0,0,9.686,7.774A30.5,30.5,0,0,0-10.2-20.9Zm136.56-79.2a31.7,31.7,0,0,1,13.288,2.685,27.648,27.648,0,0,1,10.143,8.063,36.587,36.587,0,0,1,6.389,12.712A60.2,60.2,0,0,1,158.3-60a60.2,60.2,0,0,1-2.12,16.639,36.587,36.587,0,0,1-6.389,12.712,27.648,27.648,0,0,1-10.143,8.063A31.7,31.7,0,0,1,126.36-19.9,31.488,31.488,0,0,1,113.1-22.586a27.209,27.209,0,0,1-10.054-8.066,36.79,36.79,0,0,1-6.3-12.711A61.017,61.017,0,0,1,94.66-60a61.017,61.017,0,0,1,2.089-16.637,36.79,36.79,0,0,1,6.3-12.711A27.209,27.209,0,0,1,113.1-97.414,31.488,31.488,0,0,1,126.36-100.1Zm0,79.2a30.7,30.7,0,0,0,12.872-2.595,26.658,26.658,0,0,0,9.777-7.777,35.593,35.593,0,0,0,6.211-12.368A59.207,59.207,0,0,0,157.3-60a59.207,59.207,0,0,0-2.08-16.361,35.593,35.593,0,0,0-6.211-12.368,26.658,26.658,0,0,0-9.777-7.777A30.7,30.7,0,0,0,126.36-99.1a30.5,30.5,0,0,0-12.841,2.594,26.218,26.218,0,0,0-9.686,7.774,35.794,35.794,0,0,0-6.123,12.369A60.021,60.021,0,0,0,95.66-60a60.021,60.021,0,0,0,2.051,16.363,35.794,35.794,0,0,0,6.123,12.369,26.218,26.218,0,0,0,9.686,7.774A30.5,30.5,0,0,0,126.36-20.9Zm-411.62-54h71.56v22.12h-71.56Zm70.56,1h-69.56v20.12h69.56Z" transform="translate(409.1 178.58)" fill="#fff" opacity="0.168"/></svg>