<svg xmlns="http://www.w3.org/2000/svg" width="593.102" height="171.4" viewBox="0 0 593.102 171.4"><path d="M-291.86-168.5h112.6v28.6H-256.3v37.4h68.64v28.6H-256.3v45.8h77.04V.5h-112.6Zm111.6,1h-110.6V-.5h110.6V-27.1H-257.3V-74.9h68.64v-26.6H-257.3v-39.4h77.04Zm441.549,7.4h1.531v39.6h34.8v23.8h-34.8v56.14A29.318,29.318,0,0,0,264-31.771a14.539,14.539,0,0,0,3.477,5.978,14.6,14.6,0,0,0,5.862,3.478,27.236,27.236,0,0,0,8.424,1.175,52.013,52.013,0,0,0,17.354-2.851l.62-.219,1.509,21.878-.311.145A50.968,50.968,0,0,1,287.9,1.633,104.991,104.991,0,0,1,270.72,2.9,50.356,50.356,0,0,1,254.115.352a33.7,33.7,0,0,1-12.544-7.674,32.646,32.646,0,0,1-7.86-12.307A47.863,47.863,0,0,1,231.1-36V-96.7H209.26v-23.8H231.1v-30.835Zm.531,1h-.389L232.1-150.585V-119.5H210.26v21.8H232.1V-36a46.873,46.873,0,0,0,2.55,16.029,31.653,31.653,0,0,0,7.62,11.933A32.707,32.707,0,0,0,254.445-.592,49.365,49.365,0,0,0,270.72,1.9,104.007,104.007,0,0,0,287.737.647a50.536,50.536,0,0,0,12.46-3.6l-1.371-19.885A53.232,53.232,0,0,1,281.76-20.14a28.218,28.218,0,0,1-8.736-1.225,15.585,15.585,0,0,1-6.258-3.722,15.524,15.524,0,0,1-3.723-6.382,30.3,30.3,0,0,1-1.223-9.091V-97.7h34.8v-21.8h-34.8ZM13.2-122.9a72.668,72.668,0,0,1,12.559,1.043,55.779,55.779,0,0,1,11.117,3.134,47.919,47.919,0,0,1,9.663,5.23,47.92,47.92,0,0,1,8.193,7.321,51.793,51.793,0,0,1,6.521,9.179,59.131,59.131,0,0,1,4.652,10.8A86.979,86.979,0,0,1,69.62-59.76v11.54H-13.815a37.577,37.577,0,0,0,3.15,10.411,24.125,24.125,0,0,0,5.892,7.79A24.068,24.068,0,0,0,3.8-25.347,37.889,37.889,0,0,0,15.12-23.78a43.164,43.164,0,0,0,18.15-3.554c5.113-2.36,10.185-6.356,15.075-11.878l.344-.389L65.915-23.124l-.207.343a45,45,0,0,1-8.828,10.5A57.058,57.058,0,0,1,44.5-4.112,66.326,66.326,0,0,1,29.66,1.148,73.822,73.822,0,0,1,13.44,2.9,82.5,82.5,0,0,1,.1,1.866,62.3,62.3,0,0,1-11.7-1.242,51.8,51.8,0,0,1-21.935-6.43,49.529,49.529,0,0,1-30.6-13.7a51.866,51.866,0,0,1-6.892-9.1,56.766,56.766,0,0,1-4.919-10.677,69.983,69.983,0,0,1-2.946-12.245A93.152,93.152,0,0,1-46.34-59.52a94.258,94.258,0,0,1,.988-13.934,71.28,71.28,0,0,1,2.969-12.387,58.176,58.176,0,0,1,4.955-10.833,53.365,53.365,0,0,1,6.943-9.267,50.881,50.881,0,0,1,8.688-7.423,51.64,51.64,0,0,1,10.186-5.3A60.443,60.443,0,0,1,.058-121.843,78.528,78.528,0,0,1,13.2-122.9ZM68.62-49.22V-59.76a85.987,85.987,0,0,0-3.666-26.127,58.133,58.133,0,0,0-4.573-10.619,50.8,50.8,0,0,0-6.394-9,46.918,46.918,0,0,0-8.022-7.169A46.919,46.919,0,0,0,36.5-117.8a54.779,54.779,0,0,0-10.918-3.076A71.674,71.674,0,0,0,13.2-121.9,77.514,77.514,0,0,0,.227-120.857a59.442,59.442,0,0,0-11.476,3.123,50.635,50.635,0,0,0-9.989,5.2,49.876,49.876,0,0,0-8.517,7.277,52.368,52.368,0,0,0-6.812,9.093,57.171,57.171,0,0,0-4.87,10.647,70.281,70.281,0,0,0-2.926,12.213A93.259,93.259,0,0,0-45.34-59.52a92.158,92.158,0,0,0,.969,13.658,68.993,68.993,0,0,0,2.9,12.07A55.773,55.773,0,0,0-36.636-23.3a50.874,50.874,0,0,0,6.758,8.92,48.528,48.528,0,0,0,8.492,7.119A50.8,50.8,0,0,0-11.344-2.178,61.3,61.3,0,0,0,.261.879,81.5,81.5,0,0,0,13.44,1.9a72.817,72.817,0,0,0,16-1.728,65.315,65.315,0,0,0,14.618-5.18A56.057,56.057,0,0,0,56.22-13.035a44.082,44.082,0,0,0,8.424-9.922l-15.895-15.2c-4.877,5.426-9.941,9.373-15.059,11.735A44.148,44.148,0,0,1,15.12-22.78,38.881,38.881,0,0,1,3.5-24.393a25.063,25.063,0,0,1-8.921-4.868,25.119,25.119,0,0,1-6.138-8.11,39.077,39.077,0,0,1-3.33-11.274l-.087-.575ZM154.8-122.9a44.807,44.807,0,0,1,18.324,3.523A33.809,33.809,0,0,1,186.4-108.782a48.625,48.625,0,0,1,8.006,17.4A97.078,97.078,0,0,1,197.06-67.44V.5H165.58V-67.68a63.055,63.055,0,0,0-1.248-13.392,25.475,25.475,0,0,0-3.7-9.121,15.221,15.221,0,0,0-6.335-5.23,22.818,22.818,0,0,0-9.336-1.756,28.38,28.38,0,0,0-11.351,2.209,25.942,25.942,0,0,0-9.036,6.624,29.742,29.742,0,0,0-5.93,10.121A38.731,38.731,0,0,0,116.66-65.52V.5H84.94V-88.32c0-14.476-.322-25.118-.958-31.631l-.054-.549h29.8l.052.441a177.369,177.369,0,0,1,1.2,20.175,33.113,33.113,0,0,1,5.82-9.081,38.937,38.937,0,0,1,9.39-7.507,46.586,46.586,0,0,1,11.675-4.822A51.251,51.251,0,0,1,154.8-122.9ZM196.06-.5V-67.44a96.089,96.089,0,0,0-2.624-23.7,47.637,47.637,0,0,0-7.834-17.042,33.821,33.821,0,0,0-5.824-6,32.632,32.632,0,0,0-7.062-4.284A43.82,43.82,0,0,0,154.8-121.9a50.252,50.252,0,0,0-12.684,1.574,45.586,45.586,0,0,0-11.425,4.718,37.942,37.942,0,0,0-9.15,7.313,32.13,32.13,0,0,0-5.879,9.365l-.127.311H113.98v-.5a177.313,177.313,0,0,0-1.145-20.38H85.03c.6,6.586.91,17.07.91,31.18V-.5h29.72V-65.52A39.727,39.727,0,0,1,117.7-78.554a30.736,30.736,0,0,1,6.13-10.459,26.932,26.932,0,0,1,9.384-6.876A29.372,29.372,0,0,1,144.96-98.18a23.8,23.8,0,0,1,9.744,1.844,16.207,16.207,0,0,1,6.745,5.57,26.455,26.455,0,0,1,3.859,9.479A64.047,64.047,0,0,1,166.58-67.68V-.5Zm-366.713-120h32.769l.116.337,28.087,81.194,28.2-81.531h32.769L-96.139.5h-27.082l-.124-.318Zm32.057,1h-30.591l46.648,119h25.718l46.648-119H-80.764L-109.68-35.911ZM12.48-97.94a33.221,33.221,0,0,1,11.3,1.8,23.259,23.259,0,0,1,8.613,5.427,23.35,23.35,0,0,1,5.426,8.551,32.321,32.321,0,0,1,1.8,11.122v1.94H-15.218l.083-.572a46.955,46.955,0,0,1,3.216-11.857,30.4,30.4,0,0,1,5.8-8.936,23.215,23.215,0,0,1,8.216-5.609A27.791,27.791,0,0,1,12.48-97.94ZM38.62-70.1v-.94a31.33,31.33,0,0,0-1.739-10.778,22.356,22.356,0,0,0-5.194-8.189A22.268,22.268,0,0,0,23.44-95.2a32.231,32.231,0,0,0-10.96-1.74A26.8,26.8,0,0,0,2.466-95.146,22.221,22.221,0,0,0-5.4-89.775,29.4,29.4,0,0,0-11-81.131,45.433,45.433,0,0,0-14.059-70.1Z" transform="translate(291.86 168.5)" fill="#fff" opacity="0.168"/></svg>