<svg xmlns="http://www.w3.org/2000/svg" width="120" height="120" viewBox="0 0 120 120"><g transform="translate(-863.098 -1394.289)"><circle cx="60" cy="60" r="60" transform="translate(863.098 1394.289)" fill="#fff"/><path d="M-43.43-14h9.4v2.3h-6.52v3.74h6.08v2.3h-6.08V0h-2.88ZM-29.05.2A3.088,3.088,0,0,1-31.66-.96a5.516,5.516,0,0,1-.89-3.4V-10h2.56v5.66a3.324,3.324,0,0,0,.42,1.88,1.478,1.478,0,0,0,1.3.6,2.17,2.17,0,0,0,1.74-.81,3.02,3.02,0,0,0,.68-2.01V-10h2.56v7.46A25.016,25.016,0,0,0-23.13,0h-2.42a11.589,11.589,0,0,1-.18-1.76h-.04A2.887,2.887,0,0,1-27.02-.33,3.891,3.891,0,0,1-29.05.2Zm10.32,0a2.6,2.6,0,0,1-1.95-.69,2.742,2.742,0,0,1-.67-1.99V-14.84h2.54v12.4a.839.839,0,0,0,.23.65.993.993,0,0,0,.69.21,3.323,3.323,0,0,0,1.14-.26l.38,1.36A3.814,3.814,0,0,1-18.73.2Zm5.82,0a2.6,2.6,0,0,1-1.95-.69,2.742,2.742,0,0,1-.67-1.99V-14.84h2.54v12.4a.839.839,0,0,0,.23.65.993.993,0,0,0,.69.21,3.323,3.323,0,0,0,1.14-.26l.38,1.36A3.814,3.814,0,0,1-12.91.2ZM6.25-14,1.39,0H-1.23L-6.09-14h3L.09-3.66,3.25-14Zm2.82,2.84a1.662,1.662,0,0,1-1.18-.41,1.419,1.419,0,0,1-.44-1.09,1.419,1.419,0,0,1,.44-1.09,1.662,1.662,0,0,1,1.18-.41,1.7,1.7,0,0,1,1.19.41,1.4,1.4,0,0,1,.45,1.09,1.419,1.419,0,0,1-.44,1.09A1.691,1.691,0,0,1,9.07-11.16ZM7.81-10h2.54V0H7.81ZM16.37.2a3.725,3.725,0,0,1-3.09-1.43,6.18,6.18,0,0,1-1.13-3.93,6.355,6.355,0,0,1,.52-2.66,4,4,0,0,1,1.49-1.76,4.123,4.123,0,0,1,2.27-.62,3.76,3.76,0,0,1,1.55.3,3.149,3.149,0,0,1,1.17.92h.04v-5.86h2.54V-2.66q0,2.08.06,2.66h-2.4q-.02-.34-.02-1.32h-.04a3.366,3.366,0,0,1-1.27,1.1A3.625,3.625,0,0,1,16.37.2Zm.5-1.96a2.326,2.326,0,0,0,1.69-.61,2.139,2.139,0,0,0,.63-1.61V-6.04a2.161,2.161,0,0,0-.66-1.62,2.288,2.288,0,0,0-1.66-.64,1.841,1.841,0,0,0-1.62.82,4.171,4.171,0,0,0-.56,2.36,4.607,4.607,0,0,0,.56,2.49A1.811,1.811,0,0,0,16.87-1.76Zm15.92-2.3H25.83a2.236,2.236,0,0,0,2.46,2.12,3.621,3.621,0,0,0,1.53-.3,3.948,3.948,0,0,0,1.27-1l1.38,1.32A4.1,4.1,0,0,1,30.72-.38,5.706,5.706,0,0,1,28.15.2a4.777,4.777,0,0,1-3.64-1.37,5.284,5.284,0,0,1-1.3-3.79A5.4,5.4,0,0,1,24.52-8.8a4.7,4.7,0,0,1,3.61-1.4,4.357,4.357,0,0,1,3.43,1.38,5.571,5.571,0,0,1,1.23,3.84Zm-2.5-1.86a2.176,2.176,0,0,0-.59-1.61,2.2,2.2,0,0,0-1.63-.59,2,2,0,0,0-1.52.61,3.049,3.049,0,0,0-.74,1.71h4.48ZM38.99.2a5.066,5.066,0,0,1-3.78-1.38A5.207,5.207,0,0,1,33.85-5a5.207,5.207,0,0,1,1.36-3.82,5.066,5.066,0,0,1,3.78-1.38,5.1,5.1,0,0,1,3.79,1.38A5.184,5.184,0,0,1,44.15-5a5.184,5.184,0,0,1-1.37,3.82A5.1,5.1,0,0,1,38.99.2Zm0-1.9a2.32,2.32,0,0,0,1.92-.88A3.788,3.788,0,0,0,41.61-5a3.788,3.788,0,0,0-.7-2.42,2.32,2.32,0,0,0-1.92-.88,2.292,2.292,0,0,0-1.91.88A3.827,3.827,0,0,0,36.39-5a3.827,3.827,0,0,0,.69,2.42A2.292,2.292,0,0,0,38.99-1.7Z" transform="translate(923.098 1462.289)" fill="#4b01d7"/></g></svg>