<svg xmlns="http://www.w3.org/2000/svg" width="169.531" height="111.502" viewBox="0 0 169.531 111.502"><g transform="translate(-79.225 -11257)"><path d="M123.736,0,72.43,86.723h9.242l4.561-7.757L92.306,68.64l31.43-53.126,14.969,25.3,5.183,8.761,17.386,29.388h-9.019l-19.433-32.95L128.065,53.9,143.07,78.966H105.16L120.639,52.9l3.437-5.659,4.8-7.908L124.2,31.395,119.42,39.46l-.756,1.277,0,.009-2.619,4.411L95.974,78.966l-4.606,7.757h83.673L153.066,49.578l-5.183-8.761Z" transform="translate(40.395 11257.001)" fill="#fff"/><path d="M19593.35,23966.746l-.08-.09.693-1.371.168.168a6.189,6.189,0,0,0,4.139,1.516c2.094,0,3.3-.77,3.3-2.111,0-1.5-1.576-1.889-3.4-2.334-2.129-.518-4.547-1.107-4.547-3.809,0-1.8,1.293-3.717,4.926-3.717a7.381,7.381,0,0,1,4.1,1.18l.113.078-.594,1.406-.17-.113a6.523,6.523,0,0,0-3.453-1.041c-2.025,0-3.234.813-3.234,2.172,0,1.51,1.582,1.895,3.422,2.346,2.123.518,4.523,1.1,4.523,3.76,0,1.781-1.311,3.693-4.986,3.693A7.229,7.229,0,0,1,19593.35,23966.746Zm-52.658-5a6.954,6.954,0,1,1,6.959,6.736A6.7,6.7,0,0,1,19540.691,23961.742Zm1.689,0a5.251,5.251,0,1,0,5.27-5.18A5.05,5.05,0,0,0,19542.381,23961.742Zm-63.172,0a6.954,6.954,0,1,1,6.959,6.736A6.7,6.7,0,0,1,19479.209,23961.742Zm1.689,0a5.252,5.252,0,1,0,5.27-5.18A5.051,5.051,0,0,0,19480.9,23961.742Zm106.488,6.627-5.2-5.99-2.459,2.5v3.494h-1.709v-13.256h1.709v7.549l7.338-7.549h2.045l-5.762,6.027,6.117,7.229Zm-17.492,0-2.947-4.145a9.207,9.207,0,0,1-.949.049h-3.291v4.1h-1.715v-5.605h4.969c2.436,0,3.777-1.082,3.777-3.055,0-2.01-1.3-3.074-3.777-3.074h-4.969v-1.521H19566c3.361,0,5.449,1.762,5.449,4.6a4.139,4.139,0,0,1-2.852,4.145l3.213,4.516Zm-39.863,0-3.662-10.652-3.676,10.652h-1.666l-4.471-13.256h1.77l3.6,10.742,3.729-10.742h1.516l3.676,10.791,3.658-10.791h1.678l-4.477,13.256Zm-57.8,0-2.947-4.145a9.217,9.217,0,0,1-.951.049h-3.295v4.1h-1.709v-5.605h4.969c2.436,0,3.777-1.082,3.777-3.055,0-2.01-1.311-3.074-3.777-3.074h-4.969v-1.521h5c3.363,0,5.451,1.762,5.451,4.6a4.144,4.144,0,0,1-2.852,4.145l3.211,4.516Zm-18.437,0v-13.059h1.686v13.059Zm-7.1,0-1.527-3.4-.645-1.432-2.791-6.242-2.791,6.242-.643,1.432-1.529,3.4H19435l5.967-13.059h1.547l5.973,13.059Zm62.566-.006-.049-.064-7.994-10.088v10.152h-1.709v-13.25h1.385l.047.064,8.012,10.088v-10.152h1.691v13.25Z" transform="translate(-19355 -12600.477)" fill="#fff"/><path d="M19598.27,23968.979a7.746,7.746,0,0,1-5.279-1.885l-.014-.016-.307-.344,1.158-2.291.654.654a5.671,5.671,0,0,0,3.787,1.371c1.045,0,2.8-.209,2.8-1.611,0-1.061-1.092-1.377-3.02-1.848a10.945,10.945,0,0,1-3.219-1.148,3.509,3.509,0,0,1-1.709-3.146,3.865,3.865,0,0,1,1.266-2.9,6.014,6.014,0,0,1,4.16-1.312,7.889,7.889,0,0,1,4.391,1.271l.109.074.336.232-.988,2.338-.67-.447a6.012,6.012,0,0,0-3.178-.959c-.822,0-2.734.162-2.734,1.672,0,1.063,1.094,1.383,3.029,1.857l.012,0a10.882,10.882,0,0,1,3.205,1.141,3.459,3.459,0,0,1,1.7,3.105,3.81,3.81,0,0,1-1.283,2.889A6.15,6.15,0,0,1,19598.27,23968.979Zm-4.391-2.418a7.054,7.054,0,0,0,4.391,1.418,5.269,5.269,0,0,0,3.539-1.053,2.82,2.82,0,0,0,.947-2.141,2.451,2.451,0,0,0-1.23-2.258,10.178,10.178,0,0,0-2.908-1.016l-.016,0a10.725,10.725,0,0,1-2.514-.822,2.195,2.195,0,0,1-1.277-2.006c0-1.648,1.432-2.672,3.734-2.672a7.033,7.033,0,0,1,3.391.918l.205-.484a7.052,7.052,0,0,0-3.6-.943,5.146,5.146,0,0,0-3.49,1.055,2.873,2.873,0,0,0-.936,2.162,2.5,2.5,0,0,0,1.242,2.3,10.139,10.139,0,0,0,2.922,1.021,10.781,10.781,0,0,1,2.506.818,2.189,2.189,0,0,1,1.277,2c0,1.635-1.42,2.611-3.8,2.611a6.926,6.926,0,0,1-4.158-1.367Zm-46.229,2.418a7.24,7.24,0,1,1,7.441-7.236A7.189,7.189,0,0,1,19547.65,23968.979Zm0-13.475a6.577,6.577,0,0,0-4.621,1.787,6.309,6.309,0,0,0,0,8.9,6.856,6.856,0,0,0,9.229,0,6.321,6.321,0,0,0,0-8.9A6.555,6.555,0,0,0,19547.65,23955.5Zm-61.482,13.475a7.24,7.24,0,1,1,7.441-7.236A7.189,7.189,0,0,1,19486.168,23968.979Zm0-13.475a6.577,6.577,0,0,0-4.621,1.787,6.309,6.309,0,0,0,0,8.9,6.584,6.584,0,0,0,4.621,1.785,6.241,6.241,0,1,0,0-12.475Zm104.373,13.365h-3.383l-.148-.172-4.85-5.582-1.936,1.965v3.789h-2.709v-14.256h2.709v6.816l6.627-6.816h3.426l-6.26,6.547Zm-2.926-1h.77l-5.711-6.748.311-.326,4.953-5.182h-.664l-8.049,8.281v-8.281h-.709v12.256h.709v-3.2l.145-.146,2.838-2.881.354.408Zm-14.838,1h-3.141l-.15-.211-2.781-3.91c-.236.018-.471.025-.707.025h-2.791v4.1h-2.715v-6.605h5.469a3.925,3.925,0,0,0,2.488-.676,2.673,2.673,0,0,0,.012-3.781,3.926,3.926,0,0,0-2.5-.672h-5.469v-2.521H19566a6.577,6.577,0,0,1,4.307,1.354,4.721,4.721,0,0,1,1.643,3.742,4.589,4.589,0,0,1-2.586,4.359Zm-2.625-1h.688l-3.031-4.26.615-.225a3.636,3.636,0,0,0,2.523-3.676,3.754,3.754,0,0,0-1.287-2.979,5.607,5.607,0,0,0-3.662-1.117h-4.506v.521h4.469a4.852,4.852,0,0,1,3.131.9,3.264,3.264,0,0,1,1.146,2.678c0,2.26-1.559,3.555-4.277,3.555h-4.469v4.605h.715v-4.1H19566a8.736,8.736,0,0,0,.9-.047l.289-.029.17.238Zm-38.084,1h-2.395l-.115-.338-3.189-9.279-3.32,9.617h-2.381l-.115-.34-4.693-13.916h2.826l.115.342,3.137,9.352,3.365-9.693h2.229l.115.338,3.2,9.4,3.3-9.736h2.734l-.223.66Zm-1.68-1h.961l4.139-12.256h-.621l-4.016,11.846-4.035-11.846h-.8l-4.092,11.791-.467-1.391-3.488-10.4h-.713l4.133,12.256h.951l4.031-11.687.473,1.373Zm-55.277,1h-3.139l-.15-.211-2.781-3.91c-.236.018-.467.025-.709.025h-2.795v4.1h-2.709v-6.605h5.469a3.925,3.925,0,0,0,2.488-.676,2.286,2.286,0,0,0,.789-1.879,2.315,2.315,0,0,0-.779-1.9,3.923,3.923,0,0,0-2.5-.672h-5.469v-2.521h5.5a6.582,6.582,0,0,1,4.309,1.354,4.718,4.718,0,0,1,1.643,3.742,4.93,4.93,0,0,1-.824,2.854,4.577,4.577,0,0,1-1.762,1.506Zm-2.623-1h.686l-3.029-4.26.615-.225a3.636,3.636,0,0,0,2.523-3.676,3.754,3.754,0,0,0-1.287-2.979,5.613,5.613,0,0,0-3.664-1.117h-4.5v.521h4.469a4.854,4.854,0,0,1,3.129.9,3.265,3.265,0,0,1,1.148,2.678c0,2.26-1.559,3.555-4.277,3.555h-4.469v4.605h.709v-4.1h3.795a8.745,8.745,0,0,0,.9-.047l.289-.029.17.238Zm-16.51,1h-2.686v-14.059h2.686Zm-1.686-1h.686v-12.059h-.686Zm-5.025,1h-2.9l-.133-.295-2.17-4.83-2.336-5.223-2.977,6.654-1.662,3.693h-2.869l.322-.707,6.1-13.352h2.188l.135.293Zm-2.248-1h.689l-5.514-12.059h-.906l-5.51,12.059h.666l1.4-3.1,3.889-8.693,3.248,7.264Zm64.125.994h-2.131l-.2-.258-7.1-8.959v9.217h-2.709v-14.25h2.139l.191.262,7.113,8.957v-9.219h2.691Zm-1.639-1h.639v-12.25h-.691v11.086l-.891-1.123-7.914-9.963h-.639v12.25h.709v-11.088l.893,1.125Zm38.145-.449a5.832,5.832,0,0,1-4.131-1.605,5.872,5.872,0,0,1,0-8.139,6.076,6.076,0,0,1,8.236,0,5.9,5.9,0,0,1,0,8.135A5.766,5.766,0,0,1,19547.65,23967.414Zm0-10.352a4.832,4.832,0,0,0-3.43,1.32,4.872,4.872,0,0,0,0,6.711,5.082,5.082,0,0,0,6.832,0,4.9,4.9,0,0,0,0-6.713A4.771,4.771,0,0,0,19547.65,23957.063Zm-61.482,10.352a5.832,5.832,0,0,1-4.131-1.605,5.872,5.872,0,0,1,0-8.139,6.076,6.076,0,0,1,8.236,0,5.893,5.893,0,0,1,0,8.135A5.774,5.774,0,0,1,19486.168,23967.414Zm0-10.352a4.835,4.835,0,0,0-3.43,1.32,4.872,4.872,0,0,0,0,6.711,4.835,4.835,0,0,0,3.43,1.32,4.786,4.786,0,0,0,3.4-1.318,4.895,4.895,0,0,0,0-6.713A4.776,4.776,0,0,0,19486.168,23957.063Z" transform="translate(-19355 -12600.477)" fill="rgba(0,0,0,0)"/></g></svg>