<svg xmlns="http://www.w3.org/2000/svg" xmlns:xlink="http://www.w3.org/1999/xlink" width="52.795" height="34.829" viewBox="0 0 52.795 34.829"><defs><clipPath id="a"><rect width="52.795" height="34.828" fill="#fff"/></clipPath></defs><g transform="translate(-808 -7922)"><path d="M88.528,0,72.43,27.211h2.9l1.431-2.434,1.905-3.24,9.862-16.67,4.7,7.939,1.626,2.749,5.455,9.221h-2.83l-6.1-10.339-1.493,2.474,4.708,7.865H82.7l4.857-8.18,1.078-1.776,1.507-2.481L88.674,9.85l-1.5,2.531-.237.4v0l-.822,1.384-6.3,10.608-1.445,2.434h26.254l-6.9-11.655-1.626-2.749Z" transform="translate(745.869 7922.001)" fill="#fff"/><rect width="0.529" height="4.098" transform="translate(813.896 7952.697)" fill="#fff"/><path d="M1.874,212.277,0,216.375H.557l.479-1.066.2-.449.876-1.96.876,1.96.2.449.479,1.066h.562l-1.873-4.1Z" transform="translate(808 7740.42)" fill="#fff"/><g transform="translate(808 7922)" clip-path="url(#a)"><path d="M64.875,213.72c0-.89-.655-1.443-1.709-1.443h-1.57v.479h1.559c.775,0,1.184.333,1.184.964s-.421.959-1.184.959H61.595v1.757h.537v-1.285h1.034a2.882,2.882,0,0,0,.3-.014l.924,1.3h.6l-1.008-1.415a1.3,1.3,0,0,0,.894-1.3" transform="translate(-52.706 -181.642)" fill="#fff"/><path d="M98.3,212.037a2.115,2.115,0,1,0,2.178,2.114,2.1,2.1,0,0,0-2.178-2.114m0,3.738a1.624,1.624,0,1,1,1.642-1.624,1.585,1.585,0,0,1-1.642,1.624" transform="translate(-82.246 -181.437)" fill="#fff"/><path d="M143.226,215.463l-2.513-3.166-.016-.02h-.433v4.159h.537V213.25l2.507,3.165.016.021h.433v-4.159h-.531Z" transform="translate(-120.021 -181.642)" fill="#fff"/><path d="M181.808,215.663l-1.153-3.387h-.477l-1.17,3.37-1.131-3.37h-.554l1.4,4.159h.523l1.153-3.343,1.148,3.343h.529l1.4-4.159h-.525Z" transform="translate(-151.733 -181.642)" fill="#fff"/><path d="M231.98,212.037a2.115,2.115,0,1,0,2.178,2.114,2.1,2.1,0,0,0-2.178-2.114m0,3.738a1.624,1.624,0,1,1,1.642-1.624,1.585,1.585,0,0,1-1.642,1.624" transform="translate(-196.633 -181.437)" fill="#fff"/><path d="M314.43,212.276h-.641l-2.3,2.369v-2.369h-.536v4.159h.536v-1.1l.771-.782,1.633,1.878h.65l-1.919-2.268Z" transform="translate(-266.076 -181.642)" fill="#fff"/><path d="M345.823,213.926c-.576-.141-1.074-.262-1.074-.736,0-.426.38-.681,1.016-.681a2.041,2.041,0,0,1,1.082.327l.054.035.187-.441-.036-.025a2.331,2.331,0,0,0-1.287-.369c-1.141,0-1.547.6-1.547,1.165,0,.848.759,1.033,1.428,1.2.572.139,1.066.26,1.066.731,0,.422-.377.663-1.034.663a1.936,1.936,0,0,1-1.3-.476l-.053-.052-.219.43.027.028a2.266,2.266,0,0,0,1.544.543c1.153,0,1.565-.6,1.565-1.159,0-.833-.755-1.017-1.421-1.179" transform="translate(-294.449 -181.436)" fill="#fff"/><path d="M276.327,215.02a1.3,1.3,0,0,0,.894-1.3c0-.89-.655-1.443-1.709-1.443h-1.57v.479H275.5c.775,0,1.184.333,1.184.964s-.421.959-1.184.959h-1.559v1.758h.536V215.15h1.034a2.925,2.925,0,0,0,.3-.014l.924,1.3h.6Z" transform="translate(-234.408 -181.641)" fill="#fff"/></g></g></svg>