<svg xmlns="http://www.w3.org/2000/svg" width="1284.04" height="235.72" viewBox="0 0 1284.04 235.72"><path d="M336.34-178.58h31.48v149.3c0,3.357.874,5.857,2.6,7.431s4.409,2.389,7.943,2.389c3.6,0,8.144-1.039,13.5-3.087l.512-.2,4.8,17.177-.272.205A38.545,38.545,0,0,1,384.259.84,57.928,57.928,0,0,1,368.28,2.9a41.181,41.181,0,0,1-13.7-2.1,25.878,25.878,0,0,1-10.062-6.333,26.946,26.946,0,0,1-6.145-10.3,43.82,43.82,0,0,1-2.036-13.93Zm30.48,1H337.34V-29.76a42.837,42.837,0,0,0,1.984,13.611,25.959,25.959,0,0,0,5.915,9.921,24.888,24.888,0,0,0,9.678,6.087A40.191,40.191,0,0,0,368.28,1.9a56.928,56.928,0,0,0,15.7-2.021,37.666,37.666,0,0,0,12.045-5.835l-4.321-15.464c-5.251,1.964-9.738,2.959-13.346,2.959-3.791,0-6.691-.892-8.617-2.651s-2.923-4.519-2.923-8.169ZM35.4-170.9a59.729,59.729,0,0,1,12.374,1.241,48.574,48.574,0,0,1,11,3.729,42.4,42.4,0,0,1,9.168,5.921,36.7,36.7,0,0,1,6.874,7.816,34.38,34.38,0,0,1,4.293,9.437A39.507,39.507,0,0,1,80.54-132a41.31,41.31,0,0,1-2.111,13.118,45.16,45.16,0,0,1-6.324,12.135A63.406,63.406,0,0,1,61.6-95.618a99.825,99.825,0,0,1-14.149,9.831c7.694,9.025,18.926,19.775,33.4,31.967a68.541,68.541,0,0,0,5.011-12.442A90.859,90.859,0,0,0,88.9-81.419l.052-.441h30.493l-.029.527A97.285,97.285,0,0,1,114.835-56.3a87.452,87.452,0,0,1-10.6,21.643l18.281,14.673-19.6,23.07L102.54,2.8C93.811-3.747,87.127-8.837,82.663-12.338A83.816,83.816,0,0,1,59.488-.962,89.6,89.6,0,0,1,33,2.9,92.725,92.725,0,0,1,15.264,1.271,71.472,71.472,0,0,1-.325-3.624a57.842,57.842,0,0,1-12.861-7.839,48.006,48.006,0,0,1-9.549-10.459A45.641,45.641,0,0,1-28.65-34.57a51.427,51.427,0,0,1-1.97-14.39,44.97,44.97,0,0,1,2.154-13.834A48.786,48.786,0,0,1-22.01-75.646,61.117,61.117,0,0,1-11.757-86.958a75.684,75.684,0,0,1,13.1-8.991,93.914,93.914,0,0,1-8.6-18.131A52.849,52.849,0,0,1-10.22-130.8a40.806,40.806,0,0,1,1.459-11.025,36.3,36.3,0,0,1,4.38-9.764,38.3,38.3,0,0,1,6.961-8.116,42.224,42.224,0,0,1,9.2-6.1,47.628,47.628,0,0,1,11.066-3.82A59.815,59.815,0,0,1,35.4-170.9ZM81.148-52.262l-.47-.395C65.687-65.256,54.12-76.339,46.3-85.6l-.386-.457.519-.3A99.58,99.58,0,0,0,60.953-96.382,62.416,62.416,0,0,0,71.3-107.333,44.17,44.17,0,0,0,77.481-119.2,40.314,40.314,0,0,0,79.54-132a38.5,38.5,0,0,0-1.391-10.484,33.379,33.379,0,0,0-4.168-9.163,35.7,35.7,0,0,0-6.687-7.6,41.4,41.4,0,0,0-8.952-5.779,47.571,47.571,0,0,0-10.777-3.651A58.72,58.72,0,0,0,35.4-169.9a58.811,58.811,0,0,0-12.345,1.249,46.612,46.612,0,0,0-10.834,3.74,41.218,41.218,0,0,0-8.981,5.957,37.308,37.308,0,0,0-6.779,7.9,35.3,35.3,0,0,0-4.26,9.5A39.812,39.812,0,0,0-9.22-130.8a51.856,51.856,0,0,0,2.914,16.4,93.573,93.573,0,0,0,8.774,18.38l.272.449-.462.25A75,75,0,0,0-11.1-86.2,60.117,60.117,0,0,0-21.19-75.074a47.789,47.789,0,0,0-6.324,12.588A43.972,43.972,0,0,0-29.62-48.96a50.427,50.427,0,0,0,1.93,14.11A44.645,44.645,0,0,0-21.9-22.478a47.012,47.012,0,0,0,9.351,10.241A56.841,56.841,0,0,0,.085-4.536,70.469,70.469,0,0,0,15.456.289,91.724,91.724,0,0,0,33,1.9,88.6,88.6,0,0,0,59.192-1.918a82.867,82.867,0,0,0,23.2-11.451l.3-.214.292.23C87.382-9.9,94.034-4.832,102.764,1.718l18.322-21.569-18.2-14.608.261-.382a86.458,86.458,0,0,0,10.738-21.774,96.085,96.085,0,0,0,4.506-24.244H89.844a91.47,91.47,0,0,1-3.024,14.882A69.159,69.159,0,0,1,81.44-52.8ZM-639.74-168.5H-605.6l.147.236L-538.94-61.034V-168.5h35.32V.5h-32.7l-.147-.235L-604.42-108.654V.5h-35.32Zm33.582,1H-638.74V-.5h33.32V-112.146L-535.763-.5h31.143v-167h-33.32V-57.525l-.925-1.491Zm802.1-1h54.98a110.417,110.417,0,0,1,25.678,2.684,54.635,54.635,0,0,1,18.771,8.088,37,37,0,0,1,6.705,6.045,33.613,33.613,0,0,1,4.8,7.316A41.966,41.966,0,0,1,310.7-126a43.778,43.778,0,0,1-1.4,11.289,34.278,34.278,0,0,1-4.2,9.62A36.3,36.3,0,0,1,297.923-97,53.355,53.355,0,0,1,287.9-90.415v.069a60.963,60.963,0,0,1,13.014,6.655,36.644,36.644,0,0,1,9.093,8.761,35.175,35.175,0,0,1,5.205,11.259A54.576,54.576,0,0,1,316.94-49.44,59.837,59.837,0,0,1,313.4-28.082a42.091,42.091,0,0,1-4.44,8.577,39.785,39.785,0,0,1-6.221,7.155,42.225,42.225,0,0,1-7.916,5.632A50.969,50.969,0,0,1,285.3-2.7,80.737,80.737,0,0,1,261.48.5H195.94ZM261.48-.5A79.744,79.744,0,0,0,285-3.658a49.956,49.956,0,0,0,9.334-3.935,41.243,41.243,0,0,0,7.729-5.5,38.776,38.776,0,0,0,6.064-6.975,41.1,41.1,0,0,0,4.335-8.373,58.851,58.851,0,0,0,3.477-21,53.589,53.589,0,0,0-1.693-13.969,34.184,34.184,0,0,0-5.055-10.941,35.652,35.652,0,0,0-8.847-8.519,60.345,60.345,0,0,0-13.121-6.663l-.324-.122v-1.373l.273-.139a52.64,52.64,0,0,0,10.1-6.6,35.3,35.3,0,0,0,6.982-7.868,33.282,33.282,0,0,0,4.078-9.34A42.787,42.787,0,0,0,309.7-126a40.978,40.978,0,0,0-3.73-17.933,32.62,32.62,0,0,0-4.654-7.1,36.023,36.023,0,0,0-6.525-5.88,53.649,53.649,0,0,0-18.429-7.932A109.432,109.432,0,0,0,250.92-167.5H196.94V-.5ZM35.88-145.94c4.285,0,7.678,1.3,10.085,3.879s3.615,6.111,3.615,10.541a29.243,29.243,0,0,1-4.266,14.529,54.618,54.618,0,0,1-12.23,14.173l-.422.358-.313-.457a88.967,88.967,0,0,1-8.688-15.329A32.484,32.484,0,0,1,20.74-130.56c0-4.756,1.382-8.549,4.107-11.273S31.284-145.94,35.88-145.94Zm-3.021,42a53.162,53.162,0,0,0,11.588-13.547A28.264,28.264,0,0,0,48.58-131.52a17.47,17.47,0,0,0-.843-5.628,11.631,11.631,0,0,0-2.5-4.23,10.579,10.579,0,0,0-3.984-2.664,15.027,15.027,0,0,0-5.371-.9,16.84,16.84,0,0,0-5.856.959,12.338,12.338,0,0,0-4.47,2.855A12.244,12.244,0,0,0,22.7-136.6a17.733,17.733,0,0,0-.96,6.04,31.514,31.514,0,0,0,2.841,11.926A86.863,86.863,0,0,0,32.859-103.942ZM230.5-141.86h18.98a51.81,51.81,0,0,1,11.6,1.153,23.093,23.093,0,0,1,8.248,3.5,14.687,14.687,0,0,1,4.936,6.084A21.552,21.552,0,0,1,275.9-122.4a27.092,27.092,0,0,1-1.439,9.139,18.581,18.581,0,0,1-4.347,6.935,18.581,18.581,0,0,1-6.935,4.347,27.093,27.093,0,0,1-9.139,1.439H230.5Zm23.54,40.32a26.1,26.1,0,0,0,8.8-1.381,17.589,17.589,0,0,0,6.565-4.113,17.589,17.589,0,0,0,4.113-6.565,26.1,26.1,0,0,0,1.381-8.8,20.571,20.571,0,0,0-1.547-8.318,13.7,13.7,0,0,0-4.6-5.676,22.109,22.109,0,0,0-7.892-3.339,50.815,50.815,0,0,0-11.377-1.127H231.5v39.32ZM-423.48-122.9a72.669,72.669,0,0,1,12.559,1.043,55.77,55.77,0,0,1,11.117,3.134,47.913,47.913,0,0,1,9.663,5.23,47.924,47.924,0,0,1,8.193,7.321,51.8,51.8,0,0,1,6.521,9.179,59.133,59.133,0,0,1,4.652,10.8A86.978,86.978,0,0,1-367.06-59.76v11.54H-450.5a37.58,37.58,0,0,0,3.15,10.411,24.126,24.126,0,0,0,5.892,7.79,24.069,24.069,0,0,0,8.569,4.672A37.887,37.887,0,0,0-421.56-23.78a43.162,43.162,0,0,0,18.15-3.554c5.113-2.36,10.185-6.356,15.075-11.878l.344-.389,17.225,16.476-.207.343a45.006,45.006,0,0,1-8.828,10.5,57.05,57.05,0,0,1-12.378,8.173,66.317,66.317,0,0,1-14.842,5.26A73.812,73.812,0,0,1-423.24,2.9a82.5,82.5,0,0,1-13.341-1.034,62.3,62.3,0,0,1-11.795-3.108A51.8,51.8,0,0,1-458.615-6.43a49.53,49.53,0,0,1-8.668-7.266,51.874,51.874,0,0,1-6.892-9.1,56.774,56.774,0,0,1-4.919-10.677,69.992,69.992,0,0,1-2.947-12.245,93.157,93.157,0,0,1-.98-13.807,94.277,94.277,0,0,1,.988-13.934,71.294,71.294,0,0,1,2.969-12.387,58.18,58.18,0,0,1,4.955-10.833,53.374,53.374,0,0,1,6.943-9.267,50.893,50.893,0,0,1,8.688-7.423,51.643,51.643,0,0,1,10.186-5.3,60.444,60.444,0,0,1,11.669-3.177A78.515,78.515,0,0,1-423.48-122.9Zm55.42,73.68V-59.76a85.988,85.988,0,0,0-3.666-26.127A58.131,58.131,0,0,0-376.3-96.506a50.788,50.788,0,0,0-6.394-9,46.915,46.915,0,0,0-8.022-7.169,46.925,46.925,0,0,0-9.462-5.12,54.777,54.777,0,0,0-10.918-3.076A71.676,71.676,0,0,0-423.48-121.9a77.522,77.522,0,0,0-12.973,1.043,59.444,59.444,0,0,0-11.476,3.123,50.634,50.634,0,0,0-9.989,5.2,49.87,49.87,0,0,0-8.517,7.277,52.355,52.355,0,0,0-6.812,9.093,57.163,57.163,0,0,0-4.87,10.647,70.276,70.276,0,0,0-2.926,12.213,93.243,93.243,0,0,0-.977,13.786,92.142,92.142,0,0,0,.969,13.658,68.971,68.971,0,0,0,2.9,12.07A55.764,55.764,0,0,0-473.316-23.3a50.869,50.869,0,0,0,6.758,8.92,48.539,48.539,0,0,0,8.492,7.119,50.8,50.8,0,0,0,10.041,5.087A61.3,61.3,0,0,0-436.419.879,81.506,81.506,0,0,0-423.24,1.9a72.827,72.827,0,0,0,16-1.728,65.324,65.324,0,0,0,14.618-5.18,56.059,56.059,0,0,0,12.162-8.027,44.078,44.078,0,0,0,8.424-9.922l-15.895-15.2c-4.877,5.426-9.941,9.373-15.059,11.735A44.147,44.147,0,0,1-421.56-22.78a38.88,38.88,0,0,1-11.625-1.613,25.063,25.063,0,0,1-8.921-4.868,25.116,25.116,0,0,1-6.138-8.11,39.074,39.074,0,0,1-3.33-11.274l-.087-.575Zm226.34-73.68a62.044,62.044,0,0,1,12.884,1.3,51.956,51.956,0,0,1,11.571,3.908,46.339,46.339,0,0,1,9.887,6.339,44.839,44.839,0,0,1,7.828,8.586l.279.4-.39.29-18.144,13.485-.3-.371a26.7,26.7,0,0,0-9.718-7.6A30.6,30.6,0,0,0-140.52-99.1c-4.681,0-8.345.821-10.891,2.442a7.959,7.959,0,0,0-2.8,2.906,8.3,8.3,0,0,0-.93,3.992,8.281,8.281,0,0,0,1.575,5.213c1.068,1.374,3.191,2.861,6.309,4.42,3.171,1.585,8.324,3.759,15.316,6.461,9.43,3.676,16.851,7.286,22.056,10.729,5.246,3.471,9.017,7.327,11.206,11.463a31.811,31.811,0,0,1,3.3,14.994,37.977,37.977,0,0,1-1.551,10.975,33.755,33.755,0,0,1-4.659,9.592,37.829,37.829,0,0,1-7.448,7.9,45.791,45.791,0,0,1-9.918,5.946,55.255,55.255,0,0,1-11.989,3.724A72.193,72.193,0,0,1-144.6,2.9a66.942,66.942,0,0,1-14.781-1.572A53.079,53.079,0,0,1-172.312-3.4a42.506,42.506,0,0,1-10.23-7.348,32.768,32.768,0,0,1-6.671-9.444l-.177-.381,19.709-13.721.288.4a31.68,31.68,0,0,0,10.87,9.451A28.307,28.307,0,0,0-145.08-20.9a24.484,24.484,0,0,0,7.291-1.027,17.9,17.9,0,0,0,5.838-3.064,13.864,13.864,0,0,0,3.825-4.544,12.075,12.075,0,0,0,1.266-5.5,9.933,9.933,0,0,0-.911-4.314,9.35,9.35,0,0,0-2.737-3.332c-2.509-1.96-7.957-4.56-16.192-7.727A150.14,150.14,0,0,1-165.362-58.9a57.946,57.946,0,0,1-12.226-8.659,29.522,29.522,0,0,1-6.773-9.826A30.819,30.819,0,0,1-186.62-89.28a30.019,30.019,0,0,1,3.084-13.665A31.01,31.01,0,0,1-174.3-113.68a43.116,43.116,0,0,1,14.295-6.922A67.566,67.566,0,0,1-141.72-122.9Zm41.07,20.31a43.784,43.784,0,0,0-7.372-8,45.334,45.334,0,0,0-9.673-6.2,50.954,50.954,0,0,0-11.349-3.832A61.05,61.05,0,0,0-141.72-121.9a66.571,66.571,0,0,0-18.014,2.261,42.12,42.12,0,0,0-13.965,6.758,30.019,30.019,0,0,0-8.944,10.386A29.03,29.03,0,0,0-185.62-89.28a29.824,29.824,0,0,0,2.182,11.508,28.531,28.531,0,0,0,6.547,9.494,56.983,56.983,0,0,0,12.014,8.5,149.176,149.176,0,0,0,18.537,8.431c8.327,3.2,13.861,5.851,16.448,7.873a10.2,10.2,0,0,1,4.032,8.434,13.38,13.38,0,0,1-5.469,10.831,18.9,18.9,0,0,1-6.162,3.236A25.475,25.475,0,0,1-145.08-19.9,29.294,29.294,0,0,1-159-23.559a32.706,32.706,0,0,1-10.919-9.351l-18.212,12.679a31.824,31.824,0,0,0,6.289,8.777,41.509,41.509,0,0,0,9.99,7.172A52.072,52.072,0,0,0-159.159.352,65.935,65.935,0,0,0-144.6,1.9,71.211,71.211,0,0,0-131.135.679a54.264,54.264,0,0,0,11.771-3.656,44.794,44.794,0,0,0,9.7-5.814,36.837,36.837,0,0,0,7.252-7.7,32.763,32.763,0,0,0,4.521-9.308A36.979,36.979,0,0,0-96.38-36.48a30.831,30.831,0,0,0-3.182-14.526c-2.11-3.986-5.769-7.72-10.874-11.1-5.146-3.4-12.5-6.981-21.866-10.631-7.02-2.712-12.2-4.9-15.4-6.5-3.3-1.649-5.474-3.187-6.651-4.7a9.25,9.25,0,0,1-1.785-5.827,8.658,8.658,0,0,1,4.191-7.742c2.709-1.724,6.554-2.6,11.428-2.6a31.591,31.591,0,0,1,13.106,2.624,27.582,27.582,0,0,1,9.777,7.511ZM455.16-122.9a87.877,87.877,0,0,1,13.811,1.041,66.654,66.654,0,0,1,12.25,3.129,55.3,55.3,0,0,1,10.679,5.223,52.3,52.3,0,0,1,9.095,7.315,52.507,52.507,0,0,1,7.262,9.163,56.039,56.039,0,0,1,5.184,10.761,68.012,68.012,0,0,1,3.106,12.346A89.943,89.943,0,0,1,517.58-60a89.943,89.943,0,0,1-1.033,13.923,68.012,68.012,0,0,1-3.106,12.346,56.039,56.039,0,0,1-5.184,10.761,52.507,52.507,0,0,1-7.262,9.162A52.3,52.3,0,0,1,491.9-6.493,55.3,55.3,0,0,1,481.221-1.27a66.654,66.654,0,0,1-12.25,3.129A87.877,87.877,0,0,1,455.16,2.9a87.732,87.732,0,0,1-13.8-1.041A66.318,66.318,0,0,1,429.129-1.27a54.828,54.828,0,0,1-10.642-5.223,51.752,51.752,0,0,1-9.043-7.316,52.47,52.47,0,0,1-7.209-9.163,56.225,56.225,0,0,1-5.146-10.761,68.407,68.407,0,0,1-3.083-12.345A90.572,90.572,0,0,1,392.98-60a90.572,90.572,0,0,1,1.026-13.922,68.408,68.408,0,0,1,3.083-12.346,56.225,56.225,0,0,1,5.146-10.761,52.47,52.47,0,0,1,7.209-9.162,51.751,51.751,0,0,1,9.043-7.316,54.828,54.828,0,0,1,10.642-5.223,66.318,66.318,0,0,1,12.227-3.129A87.732,87.732,0,0,1,455.16-122.9Zm0,124.8A86.9,86.9,0,0,0,468.814.871,65.67,65.67,0,0,0,480.879-2.21a54.29,54.29,0,0,0,10.486-5.128,51.29,51.29,0,0,0,8.92-7.175,51.51,51.51,0,0,0,7.123-8.987A55.059,55.059,0,0,0,512.5-34.069a67.017,67.017,0,0,0,3.059-12.164A88.945,88.945,0,0,0,516.58-60a88.945,88.945,0,0,0-1.021-13.767A67.017,67.017,0,0,0,512.5-85.931,55.059,55.059,0,0,0,507.408-96.5a51.51,51.51,0,0,0-7.123-8.988,51.29,51.29,0,0,0-8.92-7.175,54.29,54.29,0,0,0-10.486-5.128,65.67,65.67,0,0,0-12.065-3.081A86.9,86.9,0,0,0,455.16-121.9a86.753,86.753,0,0,0-13.646,1.029,65.32,65.32,0,0,0-12.043,3.081,53.835,53.835,0,0,0-10.448,5.127,50.747,50.747,0,0,0-8.867,7.174,51.448,51.448,0,0,0-7.071,8.987,55.23,55.23,0,0,0-5.054,10.569,67.417,67.417,0,0,0-3.037,12.164A89.583,89.583,0,0,0,393.98-60a89.583,89.583,0,0,0,1.014,13.768,67.417,67.417,0,0,0,3.037,12.165A55.23,55.23,0,0,0,403.085-23.5a51.448,51.448,0,0,0,7.071,8.988,50.747,50.747,0,0,0,8.867,7.174A53.835,53.835,0,0,0,429.472-2.21,65.319,65.319,0,0,0,441.514.871,86.752,86.752,0,0,0,455.16,1.9ZM579.24-122.9a59.113,59.113,0,0,1,11.725,1.105A42.53,42.53,0,0,1,601-118.47a35.948,35.948,0,0,1,8.32,5.552,37.762,37.762,0,0,1,6.257,7.271l2.358-14.853H644.3V-4.8a103.254,103.254,0,0,1-.95,14.372A72.832,72.832,0,0,1,640.5,22.086a54.556,54.556,0,0,1-4.769,10.65,45.973,45.973,0,0,1-6.688,8.773,45.217,45.217,0,0,1-8.57,6.848,52.121,52.121,0,0,1-10.4,4.885,68.374,68.374,0,0,1-12.225,2.924,96.268,96.268,0,0,1-14.038.973,100.764,100.764,0,0,1-26.411-3.378,77.96,77.96,0,0,1-22.1-9.663l-.373-.242.2-.4,10.542-21.33.449.225a93.993,93.993,0,0,0,18.143,6.8,71.724,71.724,0,0,0,18.113,2.5,36.153,36.153,0,0,0,14.026-2.511,24.1,24.1,0,0,0,9.819-7.5,34.374,34.374,0,0,0,5.851-12.628A72.828,72.828,0,0,0,614.02-8.88v-2.389a28.956,28.956,0,0,1-4.9,4.679,34.624,34.624,0,0,1-7.61,4.293A52.606,52.606,0,0,1,581.4,1.22,65.866,65.866,0,0,1,569.527.192,50.74,50.74,0,0,1,559.036-2.9a44.252,44.252,0,0,1-9.1-5.159,45.371,45.371,0,0,1-7.682-7.219,50.467,50.467,0,0,1-6.1-9.09,60.409,60.409,0,0,1-4.349-10.769A93.052,93.052,0,0,1,528.34-61.68a91.491,91.491,0,0,1,3.32-25.731,59.648,59.648,0,0,1,4.16-10.476,49.741,49.741,0,0,1,5.834-8.872,43.676,43.676,0,0,1,7.36-7.063,42.152,42.152,0,0,1,8.729-5.048,48.035,48.035,0,0,1,10.08-3.025A62.263,62.263,0,0,1,579.24-122.9Zm37.147,18.52h-1.18l-.148-.229a36.946,36.946,0,0,0-6.408-7.563,34.945,34.945,0,0,0-8.089-5.4,41.534,41.534,0,0,0-9.8-3.245A58.1,58.1,0,0,0,579.24-121.9a61.25,61.25,0,0,0-11.233.989,47.031,47.031,0,0,0-9.87,2.961,41.15,41.15,0,0,0-8.521,4.927,42.672,42.672,0,0,0-7.19,6.9,48.729,48.729,0,0,0-5.716,8.693,58.647,58.647,0,0,0-4.09,10.3A90.5,90.5,0,0,0,529.34-61.68a92.059,92.059,0,0,0,3.429,26.257,59.414,59.414,0,0,0,4.276,10.591,49.475,49.475,0,0,0,5.977,8.91,44.367,44.367,0,0,0,7.513,7.061,43.256,43.256,0,0,0,8.89,5.042A49.743,49.743,0,0,0,569.708-.792,64.87,64.87,0,0,0,581.4.22a51.619,51.619,0,0,0,19.729-3.442,33.616,33.616,0,0,0,7.39-4.167,27.76,27.76,0,0,0,5.6-5.629l.9-1.217V-8.88a73.822,73.822,0,0,1-2,18.154A35.361,35.361,0,0,1,607,22.267a25.089,25.089,0,0,1-10.221,7.8A37.138,37.138,0,0,1,582.36,32.66a72.726,72.726,0,0,1-18.367-2.536,95.117,95.117,0,0,1-17.887-6.653l-9.9,20.031a77.221,77.221,0,0,0,21.445,9.3A99.763,99.763,0,0,0,583.8,56.14a95.245,95.245,0,0,0,13.892-.962,67.363,67.363,0,0,0,12.045-2.88,51.11,51.11,0,0,0,10.205-4.79,44.211,44.211,0,0,0,8.38-6.7,44.979,44.979,0,0,0,6.542-8.582,53.54,53.54,0,0,0,4.681-10.455A85.525,85.525,0,0,0,643.3-4.8V-119.5H618.787ZM-360.044-120.5h32.973l14.792,73.019,20.661-73.019h27.876l.1.364,20.558,72.655,14.792-73.019h32.973l-.16.624L-226.292.5h-27.649l-.1-.367L-277.56-85-301.179.5h-27.889l-.1-.376Zm32.155,1h-30.867l30.464,119h26.351l24.381-88.258L-253.179-.5h26.111l30.464-119h-30.867L-242.51-45.261l-.971.037L-264.5-119.5h-26.364l-21.017,74.276-.971-.037ZM455.16-100.1a31.693,31.693,0,0,1,13.288,2.685,27.649,27.649,0,0,1,10.143,8.063,36.589,36.589,0,0,1,6.389,12.712A60.2,60.2,0,0,1,487.1-60a60.2,60.2,0,0,1-2.12,16.639,36.589,36.589,0,0,1-6.389,12.712,27.649,27.649,0,0,1-10.143,8.063A31.693,31.693,0,0,1,455.16-19.9,31.488,31.488,0,0,1,441.9-22.586a27.209,27.209,0,0,1-10.054-8.066,36.787,36.787,0,0,1-6.3-12.711A61.013,61.013,0,0,1,423.46-60a61.013,61.013,0,0,1,2.089-16.637,36.787,36.787,0,0,1,6.3-12.711A27.209,27.209,0,0,1,441.9-97.414,31.489,31.489,0,0,1,455.16-100.1Zm0,79.2a30.706,30.706,0,0,0,12.872-2.594,26.656,26.656,0,0,0,9.777-7.777,35.589,35.589,0,0,0,6.211-12.368A59.21,59.21,0,0,0,486.1-60a59.21,59.21,0,0,0-2.08-16.361,35.589,35.589,0,0,0-6.211-12.368,26.656,26.656,0,0,0-9.777-7.777A30.706,30.706,0,0,0,455.16-99.1a30.5,30.5,0,0,0-12.841,2.594,26.218,26.218,0,0,0-9.686,7.774,35.794,35.794,0,0,0-6.123,12.369A60.022,60.022,0,0,0,424.46-60a60.022,60.022,0,0,0,2.051,16.363,35.794,35.794,0,0,0,6.123,12.369,26.218,26.218,0,0,0,9.686,7.774A30.5,30.5,0,0,0,455.16-20.9Zm132-79.2a29.052,29.052,0,0,1,11.416,2.11,21.674,21.674,0,0,1,8.412,6.355,28.373,28.373,0,0,1,5.133,10.29,51.728,51.728,0,0,1,1.7,13.906v15.36a42,42,0,0,1-1.7,12.479,25.24,25.24,0,0,1-5.143,9.333,21.6,21.6,0,0,1-8.412,5.8,31.457,31.457,0,0,1-11.4,1.924,29.01,29.01,0,0,1-12.24-2.446A23.025,23.025,0,0,1,566-32.343,34.126,34.126,0,0,1,560.605-44.4,69.012,69.012,0,0,1,558.82-60.96a69.048,69.048,0,0,1,1.815-16.652,35.777,35.777,0,0,1,5.48-12.321,23.752,23.752,0,0,1,8.948-7.627A27.637,27.637,0,0,1,587.16-100.1Zm0,76.56A30.471,30.471,0,0,0,598.2-25.4a20.612,20.612,0,0,0,8.028-5.536,24.252,24.252,0,0,0,4.936-8.967A41.011,41.011,0,0,0,612.82-52.08V-67.44a50.739,50.739,0,0,0-1.661-13.634A27.383,27.383,0,0,0,606.212-91a20.683,20.683,0,0,0-8.028-6.065A28.064,28.064,0,0,0,587.16-99.1,26.648,26.648,0,0,0,575.5-96.66a22.766,22.766,0,0,0-8.572,7.313,34.785,34.785,0,0,0-5.32,11.979A68.05,68.05,0,0,0,559.82-60.96a68.032,68.032,0,0,0,1.755,16.319,33.143,33.143,0,0,0,5.227,11.7,22.036,22.036,0,0,0,8.537,7.043A28.025,28.025,0,0,0,587.16-23.54ZM-424.2-97.94a33.221,33.221,0,0,1,11.3,1.8,23.261,23.261,0,0,1,8.613,5.427,23.348,23.348,0,0,1,5.426,8.551,32.322,32.322,0,0,1,1.8,11.122v1.94H-451.9l.083-.572A46.951,46.951,0,0,1-448.6-81.529a30.4,30.4,0,0,1,5.8-8.936,23.214,23.214,0,0,1,8.216-5.61A27.792,27.792,0,0,1-424.2-97.94Zm26.14,27.84v-.94a31.328,31.328,0,0,0-1.74-10.778,22.359,22.359,0,0,0-5.194-8.188A22.269,22.269,0,0,0-413.24-95.2a32.232,32.232,0,0,0-10.96-1.74,26.8,26.8,0,0,0-10.014,1.794,22.222,22.222,0,0,0-7.864,5.371,29.405,29.405,0,0,0-5.6,8.644A45.437,45.437,0,0,0-450.739-70.1ZM230.5-76.34h20.42a62.644,62.644,0,0,1,14.4,1.454,26,26,0,0,1,9.91,4.411,18.149,18.149,0,0,1,5.738,7.709,29.968,29.968,0,0,1,1.9,11.167A34.412,34.412,0,0,1,281.3-40.823a21.369,21.369,0,0,1-4.7,8.046,19.88,19.88,0,0,1-7.6,4.985A29.145,29.145,0,0,1,258.84-26.14H230.5Zm28.34,49.2a28.159,28.159,0,0,0,9.815-1.589,18.889,18.889,0,0,0,7.221-4.735,20.377,20.377,0,0,0,4.479-7.674,33.42,33.42,0,0,0,1.5-10.463,28.986,28.986,0,0,0-1.824-10.793,17.163,17.163,0,0,0-5.422-7.291,25.019,25.019,0,0,0-9.53-4.229A61.662,61.662,0,0,0,250.92-75.34H231.5v48.2ZM17.237-75.851l.323.431a27.732,27.732,0,0,0,2.354,2.826l.028.031c5.246,6.2,11.352,12.749,18.15,19.467S52.575-39.3,60.928-32.058l.536.464-.617.349a47.621,47.621,0,0,1-11.885,4.73A55,55,0,0,1,35.64-24.94a44.608,44.608,0,0,1-12.8-1.7A28.068,28.068,0,0,1,13-31.774a22.084,22.084,0,0,1-6.26-8.164A26.359,26.359,0,0,1,4.66-50.64a30.005,30.005,0,0,1,3.171-13.3,37.091,37.091,0,0,1,9-11.556ZM19.191-71.9a26.35,26.35,0,0,1-2.1-2.486A35.933,35.933,0,0,0,8.729-63.5,29.017,29.017,0,0,0,5.66-50.64a25.371,25.371,0,0,0,2,10.3,21.1,21.1,0,0,0,5.98,7.8A27.072,27.072,0,0,0,23.124-27.6,43.616,43.616,0,0,0,35.64-25.94a54.009,54.009,0,0,0,13.079-1.545,46.681,46.681,0,0,0,11.014-4.286c-8.16-7.09-15.675-14.023-22.344-20.614C30.575-59.118,24.453-65.684,19.191-71.9Z" transform="translate(639.74 178.58)" fill="#fff" opacity="0.168"/></svg>