<svg xmlns="http://www.w3.org/2000/svg" width="1121.732" height="366.729" viewBox="0 0 1121.732 366.729"><g transform="translate(13709 16119.729)"><g transform="translate(-13709 -16114.906)"><path d="M40.336,212.277,0,299.816H11.983l10.311-22.778,4.344-9.583,18.853-41.871L64.35,267.455l4.344,9.583,10.311,22.778h12.1L50.775,212.277Z" transform="translate(0 33.631)" fill="#fff"/><rect width="11.383" height="87.539" transform="translate(126.954 245.908)" fill="#fff"/><path d="M131.168,242.648c0-18.735-13.893-30.371-36.261-30.371H61.6v10.072H94.662c16.437,0,25.126,7.02,25.126,20.3,0,13.009-8.924,20.178-25.126,20.178H61.6v36.99H72.978V272.777h21.93a61.668,61.668,0,0,0,6.331-.3l19.6,27.343H133.6L112.2,270.025c12.246-4.48,18.963-14.148,18.963-27.376" transform="translate(126.972 33.632)" fill="#fff"/><path d="M142.444,212.037c-26.412,0-46.327,19.13-46.327,44.5s19.915,44.5,46.327,44.5c26.341,0,46.2-19.127,46.2-44.5s-19.863-44.5-46.2-44.5m0,78.682c-20.319,0-35.067-14.376-35.067-34.183s14.747-34.183,35.067-34.183c20.179,0,34.825,14.379,34.825,34.183s-14.646,34.183-34.825,34.183" transform="translate(198.157 33.143)" fill="#fff"/><path d="M203.119,279.334,149.8,212.7l-.346-.428h-9.191v87.539h11.383V232.767l53.194,66.617.346.431h9.194V212.277h-11.26Z" transform="translate(289.164 33.631)" fill="#fff"/><path d="M272.469,283.565,248,212.276H237.9l-24.823,70.939L189.08,212.276H177.323l29.749,87.542h11.1l21.676-62.33,2.791-8.026,24.351,70.356h11.217l29.749-87.542H296.817Z" transform="translate(365.548 33.63)" fill="#fff"/><path d="M276.123,212.037c-26.412,0-46.327,19.13-46.327,44.5s19.915,44.5,46.327,44.5c26.341,0,46.2-19.127,46.2-44.5s-19.863-44.5-46.2-44.5m0,78.682c-20.319,0-35.067-14.376-35.067-34.183s14.747-34.183,35.067-34.183c20.178,0,34.825,14.379,34.825,34.183s-14.646,34.183-34.825,34.183" transform="translate(473.731 33.143)" fill="#fff"/><path d="M384.761,212.277H371.155L322.33,262.133V212.277h-11.38v87.539h11.38V276.734l16.355-16.454,34.644,39.535h13.8l-40.706-47.739Z" transform="translate(641.038 33.631)" fill="#fff"/><path d="M380.477,251.808c-12.221-2.962-22.775-5.519-22.775-15.491,0-8.973,8.058-14.328,21.563-14.328a43.545,43.545,0,0,1,22.946,6.877l1.148.738,3.967-9.282-.765-.529c-7.026-4.857-17.233-7.757-27.3-7.757-24.2,0-32.823,12.669-32.823,24.524,0,17.845,16.094,21.739,30.291,25.171,12.139,2.931,22.621,5.464,22.621,15.391,0,8.872-7.994,13.963-21.933,13.963-10.474,0-21.29-3.937-27.554-10.027l-1.117-1.09-4.641,9.052.566.583c6.638,6.837,19.8,11.433,32.746,11.433,24.471,0,33.193-12.606,33.193-24.4,0-17.523-16.011-21.4-30.138-24.825" transform="translate(709.386 33.141)" fill="#fff"/><path d="M324.549,270.024c12.246-4.48,18.963-14.145,18.963-27.376,0-18.735-13.893-30.371-36.257-30.371H273.942v10.075H307.01c16.437,0,25.126,7.016,25.126,20.3,0,13.012-8.924,20.178-25.126,20.178H273.942v36.993h11.38V272.776h21.933a62.521,62.521,0,0,0,6.328-.3l19.6,27.343h12.763Z" transform="translate(564.746 33.63)" fill="#fff"/></g><path d="M210-2l.866,1.5L421.732,364.729H75.781L95.5,330.693,188.151,170.8l-.013-.036L191.469,165,211.9,129.675l20.309,35.286-34.019,57.4L135.7,330.195H287.4L226.559,226.066,247.2,191.012l.857,1.489,79.252,137.694h34.607L210,67.07,82.219,288.388,38.409,364.729H-1.732ZM418.268,362.729,210,2,1.732,362.729H37.25L80.486,287.39,210,63.07,365.38,332.195H326.153l-.288-.5L247.181,194.987l-18.3,31.083,62,106.125H132.233l.87-1.5,63.361-109.349,33.426-56.4-18-31.269L190.34,170.952l.014.037L179.4,189.9,79.251,362.729Z" transform="translate(-13009 -16117.729)" fill="#fff" opacity="0.319"/></g></svg>